<svg id="Capa_1" enable-background="new 0 0 512 512" height="512" viewBox="0 0 512 512" width="512" xmlns="http://www.w3.org/2000/svg"><g><path d="m512 256c0 52.36-15.72 101.05-42.7 141.61-8.97 13.47-19.17-14.71-30.47-3.2-13.16 13.43-27.78 25.41-43.62 35.69-12.43 8.08-25.62 15.1-39.42 20.94-2.95 1.26-5.92 2.45-8.93 3.59-28.24 10.73-58.86 16.61-90.86 16.61-71.62 0-136.38-29.42-182.83-76.83-11.3-11.51-21.5 16.67-30.47 3.2-26.98-40.56-42.7-89.25-42.7-141.61 0-54.29 16.9-104.64 45.73-146.06 27.53-39.56 65.94-70.98 110.9-89.93 30.55-12.89 64.13-20.01 99.37-20.01s68.82 7.12 99.37 20.01c44.96 18.95 83.37 50.37 110.9 89.93 28.83 41.42 45.73 91.77 45.73 146.06z" fill="#7dbe3b"/><path d="m469.3 397.61c-45.87 68.95-124.28 114.39-213.3 114.39s-167.43-45.44-213.3-114.39c-3.82-95.89-2.81-191.78 3.03-287.67.78-12.75 1.64-25.51 2.59-38.26 1.02-13.68 2.14-27.37 3.35-41.05 34.99-4.77 69.97-8.31 104.96-10.62 66.25-4.4 132.49-4.4 198.74 0 34.99 2.31 69.97 5.85 104.96 10.62 1.21 13.68 2.33 27.37 3.35 41.05.95 12.75 1.81 25.51 2.59 38.26 5.84 95.89 6.85 191.78 3.03 287.67z" fill="#aa8080"/><path d="m440.8 376.73c-.21 9.36-.47 18.72-.79 28.07-.34 10.13-.72 20.25-1.18 30.37-46.45 47.41-111.21 76.83-182.83 76.83-8.27 0-16.44-.39-24.51-1.16-3.61-.34-7.21-.76-10.77-1.26-3.58-.49-7.13-1.05-10.65-1.7-3.62-.65-7.21-1.38-10.78-2.2-3.57-.8-7.12-1.68-10.64-2.64-16.38-4.45-32.1-10.49-47-17.95-3.59-1.79-7.14-3.68-10.64-5.64-21.36-11.97-40.83-26.92-57.84-44.28-.46-10.12-.84-20.24-1.18-30.37-.32-9.35-.58-18.71-.79-28.07-1.04-45.18-.96-90.41.24-135.56.24-9.36.54-18.71.89-28.07 1.28-35.27 3.25-70.48 5.91-105.58.41-5.38.83-10.83 1.28-16.32 58.71-6.92 117.96-10.43 176.48-10.43s117.77 3.51 176.48 10.43c.44 5.49.87 10.94 1.28 16.32 2.66 35.1 4.63 70.31 5.91 105.58.35 9.36.65 18.71.89 28.07 1.2 45.15 1.28 90.37.24 135.56z" fill="#7c3221"/><g><path d="m204.683 214.783h-10.649c-2.976 0-5.388-2.412-5.388-5.388v-114.622c0-2.976 2.412-5.388 5.388-5.388h10.649c2.976 0 5.388 2.412 5.388 5.388v114.623c0 2.975-2.413 5.387-5.388 5.387z" fill="#61a2f9"/><path d="m204.683 214.78h-10.648c-2.975 0-5.389-2.413-5.389-5.389v-114.618c0-2.975 2.413-5.389 5.389-5.389h10.648c-2.975 0-5.389 2.413-5.389 5.389v114.619c0 2.975 2.413 5.388 5.389 5.388z" fill="#4a81f6"/><g fill="#f1f4f6"><path d="m188.646 104.701h21.424v11.024h-21.424z"/><path d="m188.646 187.566h21.424v11.024h-21.424z"/></g><g fill="#d0e2e7"><path d="m188.646 104.701h10.648v11.024h-10.648z"/><path d="m188.646 187.566h10.648v11.024h-10.648z"/></g></g><g><path d="m226.107 214.783h-10.649c-2.976 0-5.388-2.412-5.388-5.388v-114.622c0-2.976 2.412-5.388 5.388-5.388h10.649c2.976 0 5.388 2.412 5.388 5.388v114.623c0 2.975-2.412 5.387-5.388 5.387z" fill="#d82e3d"/><path d="m226.107 214.78h-10.648c-2.975 0-5.389-2.413-5.389-5.389v-114.618c0-2.975 2.413-5.389 5.389-5.389h10.648c-2.975 0-5.389 2.413-5.389 5.389v114.619c0 2.975 2.414 5.388 5.389 5.388z" fill="#c32430"/><g fill="#ffbb16"><path d="m210.071 104.701h21.424v11.024h-21.424z"/><path d="m210.071 187.566h21.424v11.024h-21.424z"/></g><g fill="#ff931f"><path d="m210.071 104.701h10.648v11.024h-10.648z"/><path d="m210.071 187.566h10.648v11.024h-10.648z"/></g></g><g><path d="m231.49 440.95v69.89c-3.61-.34-7.21-.76-10.77-1.26-3.58-.49-7.13-1.05-10.65-1.7v-66.93c0-2.97 2.41-5.38 5.39-5.38h10.65c2.97 0 5.38 2.41 5.38 5.38z" fill="#d82e3d"/><path d="m226.11 435.57c-2.98 0-5.39 2.41-5.39 5.38v68.63c-3.58-.49-7.13-1.05-10.65-1.7v-66.93c0-2.97 2.41-5.38 5.39-5.38z" fill="#c32430"/><g><path d="m210.071 450.882h21.424v11.024h-21.424z" fill="#ffbb16"/></g><g><path d="m210.071 450.882h10.648v11.024h-10.648z" fill="#ff931f"/></g></g><g><path d="m247.531 214.783h-10.649c-2.976 0-5.388-2.412-5.388-5.388v-94.623c0-2.976 2.412-5.388 5.388-5.388h10.649c2.976 0 5.388 2.412 5.388 5.388v94.623c0 2.976-2.412 5.388-5.388 5.388z" fill="#ffbb16"/><path d="m247.531 214.78h-10.648c-2.975 0-5.389-2.413-5.389-5.389v-94.619c0-2.975 2.413-5.389 5.389-5.389h10.648c-2.975 0-5.389 2.413-5.389 5.389v94.619c.001 2.976 2.414 5.389 5.389 5.389z" fill="#ff931f"/><g fill="#544f57"><path d="m231.495 124.701h21.424v11.024h-21.424z"/><path d="m231.495 187.566h21.424v11.024h-21.424z"/></g><g fill="#454045"><path d="m231.495 124.701h10.648v11.024h-10.648z"/><path d="m231.495 187.566h10.648v11.024h-10.648z"/></g></g><g><path d="m106.545 214.783-10.43-2.147c-2.914-.6-4.791-3.449-4.191-6.363l19.076-92.68c.6-2.914 3.449-4.791 6.363-4.191l10.43 2.147c2.914.6 4.791 3.449 4.191 6.363l-19.076 92.68c-.599 2.915-3.448 4.791-6.363 4.191z" fill="#ffbb16"/><path d="m106.546 214.78-10.429-2.147c-2.914-.6-4.792-3.45-4.192-6.364l19.075-92.676c.6-2.914 3.45-4.792 6.364-4.192l10.429 2.147c-2.914-.6-5.765 1.278-6.364 4.192l-19.075 92.676c-.6 2.914 1.278 5.764 4.192 6.364z" fill="#ff931f"/><g fill="#544f57"><path d="m107.667 125.364h21.424v11.024h-21.424z" transform="matrix(.98 .202 -.202 .98 28.815 -21.178)"/><path d="m94.994 186.938h21.424v11.024h-21.424z" transform="matrix(.98 .202 -.202 .98 40.968 -17.359)"/></g><g fill="#454045"><path d="m107.778 124.278h10.648v11.024h-10.648z" transform="matrix(.98 .202 -.202 .98 28.488 -20.137)"/><path d="m95.104 185.852h10.648v11.024h-10.648z" transform="matrix(.98 .202 -.202 .98 40.641 -16.317)"/></g></g><g><path d="m210.07 422.38v85.5c-7.25-1.31-14.4-2.93-21.42-4.84v-80.66c0-2.97 2.41-5.38 5.38-5.38h10.65c2.98 0 5.39 2.41 5.39 5.38z" fill="#ffbb16"/><path d="m204.68 416.99c-2.97 0-5.39 2.42-5.39 5.39v83.3c-3.57-.8-7.12-1.68-10.64-2.64v-80.66c0-2.97 2.41-5.39 5.39-5.39z" fill="#ff931f"/><g><path d="m188.646 432.312h21.424v11.024h-21.424z" fill="#544f57"/></g><g><path d="m188.646 432.312h10.648v11.024h-10.648z" fill="#454045"/></g></g><g><path d="m268.956 214.783h-10.649c-2.976 0-5.388-2.412-5.388-5.388v-114.622c0-2.976 2.412-5.388 5.388-5.388h10.649c2.976 0 5.388 2.412 5.388 5.388v114.623c0 2.975-2.413 5.387-5.388 5.387z" fill="#544f57"/><path d="m268.956 214.78h-10.648c-2.975 0-5.389-2.413-5.389-5.389v-114.618c0-2.975 2.413-5.389 5.389-5.389h10.648c-2.975 0-5.389 2.413-5.389 5.389v114.619c0 2.975 2.413 5.388 5.389 5.388z" fill="#454045"/><g fill="#f1f4f6"><path d="m252.919 104.701h21.424v11.024h-21.424z"/><path d="m252.919 187.566h21.424v11.024h-21.424z"/></g><g fill="#d0e2e7"><path d="m252.919 104.701h10.648v11.024h-10.648z"/><path d="m252.919 187.566h10.648v11.024h-10.648z"/></g></g><g><path d="m183.259 214.783h-46.864c-2.976 0-5.388-2.412-5.388-5.388v-114.622c0-2.976 2.412-5.388 5.388-5.388h46.864c2.976 0 5.388 2.412 5.388 5.388v114.623c-.001 2.975-2.413 5.387-5.388 5.387z" fill="#544f57"/><path d="m147.043 214.78h-10.648c-2.975 0-5.389-2.413-5.389-5.389v-114.618c0-2.975 2.413-5.389 5.389-5.389h10.648c-2.975 0-5.389 2.413-5.389 5.389v114.619c.001 2.975 2.414 5.388 5.389 5.388z" fill="#454045"/><g fill="#d82e3d"><path d="m131.007 104.701h57.639v11.024h-57.639z"/><path d="m131.007 187.566h57.639v11.024h-57.639z"/></g><g fill="#c32430"><path d="m131.007 104.701h10.648v11.024h-10.648z"/><path d="m131.007 187.566h10.648v11.024h-10.648z"/></g></g><g><path d="m188.65 422.38v80.66c-20.33-5.53-39.66-13.5-57.64-23.59v-57.07c0-2.97 2.41-5.38 5.38-5.38h46.87c2.97 0 5.39 2.41 5.39 5.38z" fill="#544f57"/><path d="m147.04 416.99c-2.97 0-5.39 2.42-5.39 5.39v62.71c-3.59-1.79-7.14-3.68-10.64-5.64v-57.07c0-2.97 2.41-5.39 5.39-5.39z" fill="#454045"/><g><path d="m131.007 432.312h57.639v11.024h-57.639z" fill="#d82e3d"/></g><g><path d="m131.007 432.312h10.648v11.024h-10.648z" fill="#c32430"/></g></g><g><path d="m391.331 214.783h-33.118c-2.789 0-5.05-2.261-5.05-5.05v-107.432c0-2.789 2.261-5.05 5.05-5.05h33.118c2.789 0 5.05 2.261 5.05 5.05v107.433c0 2.788-2.261 5.049-5.05 5.049z" fill="#ffbb16"/><path d="m368.194 214.78h-9.98c-2.789 0-5.051-2.262-5.051-5.051v-107.428c0-2.789 2.262-5.051 5.051-5.051h9.98c-2.789 0-5.051 2.262-5.051 5.051v107.429c.001 2.788 2.263 5.05 5.051 5.05z" fill="#ff931f"/><g fill="#61a2f9"><path d="m353.164 111.606h43.217v10.332h-43.217z"/><path d="m353.164 189.273h43.217v10.332h-43.217z"/></g><g fill="#4a81f6"><path d="m353.164 111.606h9.98v10.332h-9.98z"/><path d="m353.164 189.273h9.98v10.332h-9.98z"/></g></g><path d="m463.68 71.68h-415.36c1.02-13.68 2.14-27.37 3.35-41.05 136.22-18.56 272.44-18.56 408.66 0 1.21 13.68 2.33 27.37 3.35 41.05z" fill="#8b5e5e"/><path d="m474.009 46.265h-436.018c-6.736 0-12.196-5.46-12.196-12.196v-6.872c0-6.737 5.46-12.197 12.196-12.197h436.018c6.736 0 12.196 5.46 12.196 12.196v6.872c0 6.736-5.46 12.197-12.196 12.197z" fill="#aa8080"/><g><path d="m130.982 379.284h-34.42c-3.009 0-5.447-2.439-5.447-5.447v-115.894c0-3.009 2.439-5.447 5.447-5.447h34.42c3.009 0 5.447 2.439 5.447 5.447v115.893c.001 3.009-2.438 5.448-5.447 5.448z" fill="#61a2f9"/><path d="m107.329 379.28h-10.766c-3.008 0-5.448-2.44-5.448-5.448v-115.889c0-3.008 2.44-5.448 5.448-5.448h10.766c-3.008 0-5.448 2.44-5.448 5.448v115.889c-.001 3.008 2.439 5.448 5.448 5.448z" fill="#4a81f6"/><g fill="#d82e3d"><path d="m91.114 267.982h45.315v11.146h-45.315z"/><path d="m91.114 351.764h45.315v11.146h-45.315z"/></g><g fill="#c32430"><path d="m91.114 267.982h10.766v11.146h-10.766z"/><path d="m91.114 351.764h10.766v11.146h-10.766z"/></g></g><g><path d="m210.922 379.284h-10.767c-3.009 0-5.447-2.439-5.447-5.447v-115.894c0-3.009 2.439-5.447 5.447-5.447h10.767c3.009 0 5.447 2.439 5.447 5.447v115.893c.001 3.009-2.438 5.448-5.447 5.448z" fill="#f1f4f6"/><path d="m210.922 379.28h-10.766c-3.008 0-5.448-2.44-5.448-5.448v-115.889c0-3.008 2.44-5.448 5.448-5.448h10.766c-3.008 0-5.448 2.44-5.448 5.448v115.889c0 3.008 2.44 5.448 5.448 5.448z" fill="#d0e2e7"/><g fill="#61a2f9"><path d="m194.708 267.982h21.662v11.146h-21.662z"/><path d="m194.708 351.764h21.662v11.146h-21.662z"/></g><g fill="#4a81f6"><path d="m194.708 267.982h10.766v11.146h-10.766z"/><path d="m194.708 351.764h10.766v11.146h-10.766z"/></g></g><g><path d="m399.097 376.336-10.403 2.773c-2.907.775-5.892-.953-6.667-3.86l-29.854-111.982c-.775-2.907.953-5.892 3.86-6.667l10.403-2.774c2.907-.775 5.892.953 6.667 3.86l29.854 111.982c.775 2.909-.953 5.893-3.86 6.668z" fill="#d82e3d"/><path d="m399.096 376.333-10.402 2.773c-2.907.775-5.893-.954-6.668-3.861l-29.853-111.978c-.775-2.907.954-5.893 3.861-6.668l10.402-2.773c-2.907.775-4.636 3.761-3.861 6.668l29.853 111.978c.775 2.907 3.761 4.636 6.668 3.861z" fill="#c32430"/><g fill="#544f57"><path d="m355.829 269.989h21.662v11.146h-21.662z" transform="matrix(.966 -.258 .258 .966 -58.61 103.751)"/><path d="m377.411 350.945h21.662v11.146h-21.662z" transform="matrix(.966 -.258 .258 .966 -78.736 112.042)"/></g><g fill="#454045"><path d="m356.012 271.393h10.766v11.146h-10.766z" transform="matrix(.966 -.258 .258 .966 -59.15 102.442)"/><path d="m377.595 352.348h10.766v11.146h-10.766z" transform="matrix(.966 -.258 .258 .966 -79.275 110.734)"/></g></g><g><path d="m189.26 379.284h-47.383c-3.009 0-5.447-2.439-5.447-5.447v-115.894c0-3.009 2.439-5.447 5.447-5.447h47.383c3.009 0 5.447 2.439 5.447 5.447v115.893c.001 3.009-2.438 5.448-5.447 5.448z" fill="#ffbb16"/><path d="m152.644 379.28h-10.766c-3.008 0-5.448-2.44-5.448-5.448v-115.889c0-3.008 2.44-5.448 5.448-5.448h10.766c-3.008 0-5.448 2.44-5.448 5.448v115.889c0 3.008 2.44 5.448 5.448 5.448z" fill="#ff931f"/><g fill="#544f57"><path d="m136.43 267.982h58.278v11.146h-58.278z"/><path d="m136.43 351.764h58.278v11.146h-58.278z"/></g><g fill="#454045"><path d="m136.43 267.982h10.766v11.146h-10.766z"/><path d="m136.43 351.764h10.766v11.146h-10.766z"/></g></g><g><path d="m351.577 379.283h-39.315c-2.496 0-4.52-2.024-4.52-4.52v-96.159c0-2.496 2.024-4.52 4.52-4.52h39.315c2.496 0 4.52 2.024 4.52 4.52v96.159c0 2.496-2.023 4.52-4.52 4.52z" fill="#61a2f9"/><path d="m321.196 379.28h-8.933c-2.496 0-4.521-2.025-4.521-4.521v-96.155c0-2.496 2.025-4.521 4.521-4.521h8.933c-2.496 0-4.521 2.025-4.521 4.521v96.155c0 2.496 2.025 4.521 4.521 4.521z" fill="#4a81f6"/><g fill="#f1f4f6"><path d="m307.743 286.933h48.354v9.248h-48.354z"/><path d="m307.743 356.45h48.354v9.248h-48.354z"/></g><g fill="#d0e2e7"><path d="m307.743 286.933h8.933v9.248h-8.933z"/><path d="m307.743 356.45h8.933v9.248h-8.933z"/></g></g><g><path d="m395.21 424.5v46.36c-15.09 9.8-31.28 18.06-48.35 24.53v-70.89c0-2.5 2.02-4.52 4.52-4.52h39.31c2.5 0 4.52 2.02 4.52 4.52z" fill="#61a2f9"/><path d="m360.31 419.98c-2.49 0-4.52 2.02-4.52 4.52v67.3c-2.95 1.26-5.92 2.45-8.93 3.59v-70.89c0-2.5 2.02-4.52 4.52-4.52z" fill="#4a81f6"/><g><path d="m346.858 432.825h48.354v9.248h-48.354z" fill="#f1f4f6"/></g><g><path d="m346.858 432.825h8.933v9.248h-8.933z" fill="#d0e2e7"/></g></g><g fill="#8b5e5e"><path d="m440.56 241.17h-369.12c.24-9.36.54-18.71.89-28.07h367.34c.35 9.36.65 18.71.89 28.07z"/><path d="m440.8 376.73c-.21 9.36-.47 18.72-.79 28.07h-368.02c-.32-9.35-.58-18.71-.79-28.07z"/></g></g></svg>