<svg viewBox="0 -85 512.00001 512" xmlns="http://www.w3.org/2000/svg"><path d="m127.199219 274.777344c0-33.066406-26.792969-59.875-59.847657-59.875-33.054687 0-59.847656 26.808594-59.847656 59.875 0 33.070312 26.792969 59.878906 59.847656 59.878906 33.054688 0 59.847657-26.808594 59.847657-59.878906zm0 0" fill="#ffe88a"/><path d="m67.351562 214.902344c-7 0-13.710937 1.210937-19.953124 3.421875 23.238281 8.222656-5.648438 30.386719-5.648438 56.457031 0 26.066406 28.886719 48.230469 5.648438 56.453125 6.242187 2.207031 12.953124 3.421875 19.953124 3.421875 33.054688 0 59.847657-26.808594 59.847657-59.875 0-33.070312-26.792969-59.878906-59.847657-59.878906zm0 0" fill="#ffd473"/><path d="m187.050781 171.050781c0-33.070312-26.796875-59.875-59.851562-59.875-33.050781 0-59.847657 26.804688-59.847657 59.875 0 33.070313 26.796876 59.875 59.847657 59.875 33.054687 0 59.851562-26.804687 59.851562-59.875zm0 0" fill="#ffb9e5"/><path d="m127.199219 111.175781c-5.480469 0-10.785157.75-15.828125 2.132813 25.367187 6.945312 44.019531 30.160156 44.019531 57.742187 0 27.585938-18.652344 50.796875-44.019531 57.742188 5.042968 1.382812 10.347656 2.132812 15.828125 2.132812 33.054687 0 59.851562-26.804687 59.851562-59.875 0-33.070312-26.796875-59.875-59.851562-59.875zm0 0" fill="#ffaad9"/><path d="m246.898438 67.375c0-33.070312-26.796876-59.878906-59.851563-59.878906-33.050781 0-59.847656 26.808594-59.847656 59.878906s26.796875 59.875 59.847656 59.875c33.054687 0 59.851563-26.804688 59.851563-59.875zm0 0" fill="#ffe88a"/><path d="m187.046875 7.496094c-4.695313 0-9.257813.558594-13.640625 1.582031 26.480469 6.179687 46.210938 29.925781 46.210938 58.296875s-19.730469 52.117188-46.210938 58.296875c4.382812 1.019531 8.945312 1.578125 13.640625 1.578125 33.054687 0 59.851563-26.804688 59.851563-59.875s-26.796876-59.878906-59.851563-59.878906zm0 0" fill="#ffd473"/><path d="m306.746094 171.050781c0-33.070312-26.796875-59.875-59.847656-59.875-33.054688 0-59.851563 26.804688-59.851563 59.875 0 33.070313 26.796875 59.875 59.851563 59.875 33.050781 0 59.847656-26.804687 59.847656-59.875zm0 0" fill="#8eefa8"/><path d="m246.898438 111.175781c-4.785157 0-9.433594.578125-13.894532 1.636719 26.351563 6.269531 45.957032 29.957031 45.957032 58.238281s-19.605469 51.96875-45.957032 58.238281c4.460938 1.0625 9.109375 1.636719 13.894532 1.636719 33.050781 0 59.847656-26.804687 59.847656-59.875 0-33.070312-26.796875-59.875-59.847656-59.875zm0 0" fill="#7ae59f"/><path d="m139.519531 205.726562c-2.464843-.285156-4.96875-.449218-7.511719-.449218-35.710937 0-64.65625 28.964844-64.65625 64.6875 0 35.726562 28.945313 64.6875 64.65625 64.6875h317.304688v-110.425782zm0 0" fill="#ff87ba"/><path d="m394.125 220.929688c-4.839844 3.257812-21.761719 15.496093-28.550781 38.984374-2.558594 8.847657-3.0625 17.160157-2.5 24.5 1.203125 15.679688-11.339844 29.011719-27.058594 29.011719h-251.898437c11.832031 13.039063 28.90625 21.230469 47.890624 21.230469h317.304688v-110.429688zm0 0" fill="#ea7db1"/><path d="m504.5 279.441406c0-30.496094-24.707031-55.214844-55.1875-55.214844s-55.1875 24.71875-55.1875 55.214844 24.707031 55.214844 55.1875 55.214844 55.1875-24.71875 55.1875-55.214844zm0 0" fill="#ffb9e5"/><path d="m512 279.441406c0-34.484375-27.96875-62.550781-62.402344-62.707031l-146.367187-8.738281c7.164062-10.859375 11.019531-23.558594 11.019531-36.945313 0-13.421875-3.9375-26.382812-11.378906-37.484375-2.308594-3.441406-6.964844-4.359375-10.40625-2.054687-3.441406 2.304687-4.359375 6.964843-2.054688 10.40625 5.78125 8.625 8.839844 18.695312 8.839844 29.132812 0 13.503907-5.027344 26.117188-14.210938 35.859375l-80.273437-4.796875c-6.601563-8.964843-10.21875-19.871093-10.21875-31.0625 0-18.246093 9.238281-34.863281 24.722656-44.5.085938-.050781.171875-.101562.257813-.152343.722656-.449219 1.464844-.882813 2.210937-1.292969.074219-.035157.148438-.074219.222657-.113281 7.605468-4.136719 16.230468-6.320313 24.9375-6.320313 8.546874 0 17.019531 2.101563 24.511718 6.082031 3.660156 1.945313 8.199219.554688 10.140625-3.105468 1.945313-3.65625.554688-8.195313-3.101562-10.140626-9.652344-5.125-20.5625-7.835937-31.550781-7.835937-1.070313 0-2.140626.035156-3.210938.085937 6.765625-10.503906 10.707031-22.984374 10.707031-36.382812 0-37.148438-30.210937-67.375-67.347656-67.375s-67.347656 30.222656-67.347656 67.375c0 13.394531 3.941406 25.878906 10.707031 36.378906-1.066406-.050781-2.136719-.085937-3.207031-.085937-37.136719 0-67.347657 30.226562-67.347657 67.382812 0 13.035157 3.835938 25.679688 10.738282 36.429688-1.078125-.050781-2.15625-.082031-3.242188-.082031-37.136718 0-67.347656 30.226562-67.347656 67.382812 0 37.152344 30.210938 67.378906 67.351562 67.378906 11.136719 0 22.023438-2.734375 31.742188-7.941406 10.140625 5.203125 21.425781 7.941406 32.914062 7.941406h186.191407c4.140625 0 7.5-3.359375 7.5-7.5 0-4.144531-3.359375-7.5-7.5-7.5h-186.191407c-10.292968 0-20.375-2.765625-29.164062-7.996094-17.265625-10.273437-27.992188-29.125-27.992188-49.195312 0-17.257812 7.667969-33.414062 21.015626-44.308594.167968-.136718.335937-.269531.511718-.40625.027344-.023437.054688-.042968.082032-.066406 4.339843-3.453125 9.132812-6.246094 14.246093-8.304688 3.84375-1.546874 5.707031-5.914062 4.160157-9.757812-1.546876-3.84375-5.917969-5.703125-9.757813-4.160156-4.570313 1.839844-8.933594 4.152344-13.035156 6.886718-10.863281-9.867187-17.222657-24.003906-17.222657-38.800781 0-28.882812 23.484376-52.378906 52.347657-52.378906 8.710937 0 17.332031 2.183594 24.9375 6.316406.078125.042969.15625.082031.230469.121094.742187.410156 1.484374.839844 2.203124 1.285156.050782.03125.101563.0625.152344.09375 15.546875 9.632813 24.828125 26.285157 24.828125 44.5625 0 10.476563-3.03125 20.433594-8.78125 29.03125l-30.800781-1.839843c-4.140625-.269532-7.6875 2.902343-7.933594 7.039062-.25 4.132812 2.902344 7.6875 7.035156 7.933594l34.839844 2.085937c.015625.003907.027344.003907.042969.003907h.039063l237.476562 14.179687c-15.082031 11.460937-24.84375 29.585937-24.84375 49.957031 0 19.089844 8.582031 36.207032 22.078125 47.71875h-56.753906c-4.144531 0-7.5 3.355469-7.5 7.5 0 4.140625 3.355469 7.5 7.5 7.5h97.359375c.050781 0 .101562-.007812.152344-.007812 34.496093-.082032 62.539062-28.179688 62.539062-62.710938zm-427.496094 44.835938c-5.476562 1.894531-11.265625 2.882812-17.152344 2.882812-28.867187 0-52.351562-23.496094-52.351562-52.378906s23.484375-52.382812 52.351562-52.382812c3.265626 0 6.476563.3125 9.625.894531-10.988281 12.933593-17.125 29.359375-17.125 46.675781 0 20.886719 9.207032 40.722656 24.652344 54.308594zm102.542969-309.28125c28.867187 0 52.351563 23.5 52.351563 52.378906s-23.484376 52.375-52.351563 52.375c-28.863281 0-52.347656-23.496094-52.347656-52.375 0-28.882812 23.484375-52.378906 52.347656-52.378906zm-3.089844 119.675781c1.023438.046875 2.054688.078125 3.089844.078125s2.066406-.03125 3.089844-.078125c-1.113281 1.734375-2.144531 3.515625-3.089844 5.34375-.945313-1.828125-1.980469-3.609375-3.089844-5.34375zm265.355469 192.484375c-26.296875 0-47.6875-21.40625-47.6875-47.714844 0-26.292968 21.363281-47.6875 47.636719-47.714844.015625 0 .035156.003907.050781.003907s.027344-.003907.039062-.003907c26.277344.023438 47.648438 21.417969 47.648438 47.714844 0 26.308594-21.394531 47.714844-47.6875 47.714844zm0 0"/></svg>