<?xml version="1.0" encoding="iso-8859-1"?>
<!-- Generator: Adobe Illustrator 19.0.0, SVG Export Plug-In . SVG Version: 6.00 Build 0)  -->
<svg version="1.1" id="Capa_1" xmlns="http://www.w3.org/2000/svg" xmlns:xlink="http://www.w3.org/1999/xlink" x="0px" y="0px"
	 viewBox="0 0 512 512" style="enable-background:new 0 0 512 512;" xml:space="preserve">
<path style="fill:#C8F5FF;" d="M502,100.988H10V502h432.5c32.861,0,59.5-26.639,59.5-59.5V100.988z"/>
<path style="fill:#6E87F5;" d="M446,10L446,10c30.928,0,56,25.072,56,56v380l0,0c0-30.928-25.072-56-56-56V10z"/>
<g>
	<path style="fill:#A5DC69;" d="M332.618,239.706c-8.183,2.364-2.78,7.593-10.256,8.543c-5.042,0.64-17.736-9.49-22.501-12.039
		c12.115-16.214-29.49-10.576-35.502-7.741c-11.445,5.398-27.548,27.084-32.684,39.189c-11.461,27.013,8.801,54.813,38.123,52.064
		c8.453-0.792,16.692-6.145,24.188,0.536c5.969,5.32,2.857,10.033,5.399,16.104c2.22,5.302,6.644,9.307,8.672,14.636
		c4.385,11.524-3.918,17.829-3.18,27.614c0.832,11.027,8.787,25.116,13.232,35.684c2.449,5.822,6.999,16.275,13.134,17.54
		c10.698,2.205,22.785-14.771,27.035-21.731c3.829-6.27,6.058-14.457,9.802-21.286c7.586-13.838,13.369-15.636,11.289-31.919
		c-2.921-22.867,16.759-23.664,25.54-42.381c6.794-14.481-5.749-8.967-15.208-13.315c-8.836-4.062-12.551-14.678-16.523-22.723
		c-4.021-8.144-6.912-20.941-13.419-27.535C353.762,244.864,340.98,242.793,332.618,239.706z"/>
	<path style="fill:#A5DC69;" d="M443.599,249.844c-3.19,3.19-36.634,24.172-42.121,19.26c-9.532-8.532-12.982-27.766-17.834-38.57
		c-9.01-20.065-36.835-29.91-58.704-33.135c-13.048-1.924-34.484-2.814-47.23,0c-8.786,1.939-3.662-1.618-8.828,4.814
		c-3.617,4.504-5.22,14.543-7.236,20.162c-5.419-7.591-21.251-23.071-22.007-31.916c-0.763-8.926,11.402-31.074,18.156-35.741
		c13.86-9.575,35.43-7.881,49.396-17.317c9.859-6.662,18.068-22.231,25.614-31.696H446L443.599,249.844z"/>
</g>
<path d="M446,0c-5.522,0-10,4.478-10,10v80.987H10c-5.522,0-10,4.478-10,10V502c0,5.522,4.478,10,10,10h436
	c36.393,0,66-29.607,66-66c0-32.994-24.335-60.411-56-65.244V21.095C476.571,25.674,492,44.07,492,66v244.986
	c0,5.522,4.478,10,10,10s10-4.478,10-10V66C512,29.607,482.393,0,446,0z M436,243.162c-5.113,3.902-22.338,13.97-29.863,16.235
	c-3.646-4.936-6.445-13.384-8.762-20.379c-1.506-4.544-2.928-8.836-4.609-12.581c-13.005-28.961-54.087-37.12-66.368-38.931
	c-12.11-1.787-35.646-3.229-50.844,0.128c-1.911,0.422-2.629,0.445-2.923,0.445c-0.053,0-0.095-0.001-0.14-0.001
	c-6.191,0-8.774,4.075-9.626,5.418c-0.283,0.446-0.71,1.121-1.781,2.454c-1.379,1.717-2.499,3.708-3.443,5.836
	c-3.724-4.592-7.573-9.757-8.039-12.207c-0.135-5.619,9.69-23.581,13.877-26.634c5.357-3.702,13.098-5.406,21.293-7.21
	c9.585-2.11,19.495-4.292,28.017-10.049c8.371-5.656,15.079-15.492,20.997-24.171c2.426-3.558,4.718-6.918,6.838-9.577
	c0.245-0.307,0.463-0.627,0.666-0.952H436V243.162z M290.1,238.38c0.633,2.844,2.474,5.271,5.043,6.646
	c0.924,0.495,2.904,1.823,4.819,3.108c9.869,6.623,16.843,10.906,23.659,10.034c6.711-0.852,9.96-4.296,11.597-7.108
	c0.787,0.234,1.575,0.464,2.355,0.692c5.596,1.637,12.561,3.673,15.067,6.213c2.895,2.935,5.31,9.323,7.439,14.96
	c1.279,3.385,2.603,6.885,4.131,9.979c0.569,1.152,1.132,2.36,1.707,3.594c3.908,8.38,8.771,18.809,19.606,23.789
	c3.103,1.426,6.236,2.112,8.958,2.53c-2.562,4.179-6.037,7.265-9.683,10.501c-7.924,7.035-17.785,15.789-15.351,34.846
	c1.062,8.317-0.056,9.996-4.213,16.24c-1.662,2.497-3.731,5.604-5.925,9.605c-2.016,3.677-3.555,7.454-5.044,11.107
	c-1.489,3.655-2.896,7.107-4.524,9.774c-6.197,10.148-13.293,16.523-16.082,17.104c-1.059-0.988-3.055-3.777-6.335-11.578
	c-1.171-2.784-2.512-5.672-3.932-8.728c-3.777-8.131-8.058-17.346-8.547-23.831c-0.138-1.828,0.529-3.791,1.628-6.842
	c2.031-5.64,4.813-13.363,0.927-23.579c-1.492-3.92-3.668-7.016-5.588-9.747c-1.312-1.866-2.551-3.628-3.206-5.193
	c-0.316-0.757-0.391-1.648-0.506-3.289c-0.272-3.896-0.729-10.417-7.463-16.417c-5.072-4.521-10.385-5.843-15.258-5.843
	c-4.09,0-7.87,0.932-10.935,1.688c-2.033,0.501-3.953,0.975-5.583,1.128c-10.36,0.964-19.609-2.968-25.345-10.812
	c-5.735-7.842-6.697-17.824-2.639-27.39c4.63-10.913,19.367-29.992,27.635-33.998c3.436-1.293,14.517-2.717,21.398-2.387
	C289.805,236.237,289.863,237.318,290.1,238.38z M492,446c0,25.364-20.636,46-46,46H20V110.987h296.757
	c-4.783,7.009-10.143,14.734-15.167,18.128c-5.355,3.618-13.013,5.304-21.119,7.089c-9.721,2.14-19.771,4.353-28.361,10.287
	c-9.568,6.61-23.511,32.251-22.437,44.819c0.757,8.858,7.882,17.846,17.864,29.573c1.332,1.565,2.616,3.077,3.721,4.423
	c-12.033,10.041-24.186,27.592-28.79,38.444c-6.775,15.971-4.941,33.544,4.907,47.009c9.851,13.467,26.062,20.543,43.354,18.917
	c3.109-0.291,5.977-0.998,8.506-1.622c5.981-1.476,6.928-1.372,8.097-0.332c0.436,0.389,0.56,0.595,0.56,0.595
	c0.119,0.302,0.203,1.497,0.259,2.288c0.171,2.441,0.405,5.785,2.009,9.616c1.493,3.566,3.511,6.438,5.292,8.971
	c1.426,2.028,2.657,3.78,3.258,5.359c1.205,3.166,0.588,5.139-1.051,9.688c-1.436,3.983-3.221,8.94-2.755,15.122
	c0.763,10.111,5.857,21.078,10.352,30.754c1.34,2.885,2.606,5.61,3.635,8.056c3.101,7.372,8.872,21.096,20.333,23.456
	c1.338,0.276,2.659,0.405,3.965,0.405c15.523-0.002,28.5-18.327,33.623-26.717c2.472-4.047,4.254-8.422,5.978-12.652
	c1.335-3.275,2.595-6.368,4.06-9.04c1.78-3.247,3.436-5.732,5.036-8.137c5.05-7.585,9.411-14.136,7.402-29.856
	c-1.096-8.579,2.003-11.33,8.791-17.356c5.139-4.562,11.534-10.239,15.884-19.511c1.369-2.917,5.005-10.666,1.173-17.572
	c-3.571-6.436-10.513-7.266-15.106-7.815c-2.264-0.271-4.605-0.551-6.15-1.261c-4.165-1.915-7.048-8.095-9.835-14.07
	c-0.64-1.372-1.267-2.714-1.899-3.995c-1.097-2.223-2.193-5.124-3.354-8.196c-2.832-7.493-6.042-15.985-11.911-21.936
	c-6.152-6.233-15.471-8.958-23.692-11.362c-2.624-0.768-5.104-1.492-7.104-2.23c-2.002-0.74-4.188-0.818-6.238-0.227
	c-5.418,1.565-8.375,4.401-10.054,6.927c-2.449-1.359-5.598-3.435-7.776-4.892c0.359-5.01-2.009-8.522-3.08-9.835
	c-4.558-5.579-13.107-7.795-26.933-6.962c-2.546,0.153-5.365,0.433-8.155,0.814c0.838-2.989,1.939-6.56,2.833-7.677
	c0.229-0.285,0.442-0.556,0.643-0.813c0.755-0.126,1.598-0.289,2.544-0.498c10.72-2.365,30.594-1.791,43.615,0.128
	c20.069,2.96,44.017,11.695,51.042,27.339c1.262,2.812,2.527,6.632,3.867,10.677c3.653,11.028,7.794,23.527,16.419,31.248
	c2.557,2.288,5.607,3.292,9.131,3.292c6.504-0.001,14.612-3.423,24.161-8.509c2.493-1.327,5.218-2.865,7.9-4.45V390
	c0,5.522,4.478,10,10,10C471.364,400,492,420.636,492,446z"/>
<path d="M502,346.99c-2.63,0-5.21,1.06-7.07,2.92c-1.86,1.859-2.93,4.439-2.93,7.08c0,2.63,1.069,5.21,2.93,7.069
	c1.86,1.86,4.44,2.931,7.07,2.931s5.21-1.07,7.069-2.931c1.86-1.859,2.931-4.439,2.931-7.069c0-2.641-1.07-5.21-2.931-7.08
	C507.21,348.05,504.63,346.99,502,346.99z"/>
<path d="M208.08,438c-2.63,0-5.21,1.069-7.07,2.93s-2.93,4.44-2.93,7.07s1.069,5.21,2.93,7.069c1.86,1.86,4.44,2.931,7.07,2.931
	s5.21-1.07,7.069-2.931c1.86-1.859,2.931-4.439,2.931-7.069c0-2.641-1.07-5.21-2.931-7.07C213.29,439.069,210.71,438,208.08,438z"/>
<path d="M204.604,410.215l-30.432-81.231c6.58-4.007,12.729-8.826,18.315-14.412c3.905-3.905,3.905-10.237,0-14.143
	c-3.906-3.904-10.236-3.904-14.143,0c-3.52,3.52-7.325,6.649-11.354,9.385l-9.972-26.617c10.302-9.184,16.806-22.542,16.806-37.396
	c0-24.205-17.253-44.455-40.107-49.102v-15.685c0-5.522-4.478-10-10-10s-10,4.478-10,10v15.685
	c-22.854,4.647-40.106,24.897-40.106,49.102c0,14.785,6.441,28.091,16.659,37.271l-9.976,26.636
	c-3.973-2.712-7.729-5.803-11.205-9.279c-3.906-3.904-10.236-3.904-14.143,0c-3.905,3.905-3.905,10.237,0,14.143
	c5.543,5.543,11.641,10.329,18.163,14.318L29.813,444.492c-1.938,5.173,0.685,10.936,5.856,12.872
	c1.156,0.434,2.341,0.639,3.507,0.639c4.05,0,7.861-2.479,9.365-6.495l42.691-113.987c10.294,3.638,21.243,5.535,32.484,5.535
	c11.181,0,22.072-1.879,32.318-5.478l29.84,79.652c1.505,4.017,5.315,6.495,9.366,6.495c1.165,0,2.351-0.205,3.506-0.639
	C203.919,421.149,206.541,415.387,204.604,410.215z M123.717,215.694c16.602,0,30.107,13.506,30.107,30.106
	c0,16.602-13.506,30.107-30.107,30.107S93.611,262.401,93.611,245.8C93.61,229.2,107.116,215.694,123.717,215.694z M123.717,323.057
	c-8.806,0-17.382-1.476-25.461-4.288l9.539-25.469c5.006,1.683,10.356,2.608,15.922,2.608c5.502,0,10.794-0.905,15.751-2.551
	l9.541,25.468C140.979,321.599,132.462,323.057,123.717,323.057z"/>
<path d="M123.72,255.8c2.63,0,5.2-1.07,7.07-2.93c1.859-1.86,2.93-4.44,2.93-7.07s-1.07-5.21-2.93-7.07
	c-1.87-1.859-4.44-2.93-7.07-2.93s-5.21,1.07-7.08,2.93c-1.86,1.86-2.92,4.44-2.92,7.07s1.06,5.21,2.92,7.07
	C118.51,254.729,121.09,255.8,123.72,255.8z"/>
<g>
</g>
<g>
</g>
<g>
</g>
<g>
</g>
<g>
</g>
<g>
</g>
<g>
</g>
<g>
</g>
<g>
</g>
<g>
</g>
<g>
</g>
<g>
</g>
<g>
</g>
<g>
</g>
<g>
</g>
</svg>
