<?xml version="1.0" encoding="iso-8859-1"?>
<!-- Generator: Adobe Illustrator 19.0.0, SVG Export Plug-In . SVG Version: 6.00 Build 0)  -->
<svg version="1.1" id="Layer_1" xmlns="http://www.w3.org/2000/svg" xmlns:xlink="http://www.w3.org/1999/xlink" x="0px" y="0px"
	 viewBox="0 0 511.999 511.999" style="enable-background:new 0 0 511.999 511.999;" xml:space="preserve">
<polygon style="fill:#E7ECED;" points="324.262,270.221 324.262,292.976 187.737,292.976 187.737,270.221 187.737,224.713 
	324.262,224.713 "/>
<g>
	<rect x="153.605" y="8.548" style="fill:#7E8488;" width="204.789" height="45.509"/>
	<polygon style="fill:#7E8488;" points="472.164,270.221 472.164,503.452 39.835,503.452 39.835,270.221 187.737,270.221 
		187.737,292.976 324.262,292.976 324.262,270.221 	"/>
</g>
<polygon style="fill:#AFB6BB;" points="494.919,122.32 494.919,270.221 472.164,270.221 324.262,270.221 324.262,224.713 
	187.737,224.713 187.737,270.221 39.835,270.221 17.08,270.221 17.08,122.32 "/>
<path style="fill:#6F7478;" d="M134.291,270.221H39.835v233.231h432.331v-40.715C319.951,454.153,191.49,377.37,134.291,270.221z"/>
<rect x="17.08" y="122.322" style="fill:#A3A9AE;" width="477.834" height="56.886"/>
<g>
	<rect x="386.841" y="449.399" style="fill:#FFFFFF;" width="51.197" height="17.095"/>
	<rect x="176.365" y="170.656" style="fill:#FFFFFF;" width="159.282" height="17.095"/>
</g>
<path d="M503.467,113.772H8.532v164.997h22.754v233.23h449.426V278.77h22.754V113.772H503.467z M486.371,261.675H347.016v17.095
	h116.601v216.135H48.382v-28.413h304.323v-17.095H48.382V278.77h116.601v-17.095H25.627V130.867H486.37v130.808H486.371z"/>
<path d="M332.81,216.165H179.189v85.357H332.81V216.165z M315.715,284.428h-119.43v-51.167h119.43V284.428z"/>
<rect x="216.185" y="250.296" width="79.64" height="17.095"/>
<path d="M167.813,93.877h17.095V62.604h142.184v31.273h17.095V62.604h22.755V0H145.058v62.605h22.755V93.877z M162.153,17.095
	h187.693V45.51H162.153V17.095z"/>
<rect x="358.395" y="170.656" width="22.754" height="17.095"/>
<rect x="130.846" y="170.656" width="22.754" height="17.095"/>
<rect x="88.176" y="298.664" width="17.095" height="102.389"/>
<rect x="406.728" y="298.664" width="17.095" height="102.389"/>
<g>
</g>
<g>
</g>
<g>
</g>
<g>
</g>
<g>
</g>
<g>
</g>
<g>
</g>
<g>
</g>
<g>
</g>
<g>
</g>
<g>
</g>
<g>
</g>
<g>
</g>
<g>
</g>
<g>
</g>
</svg>
