<svg id="Capa_1" enable-background="new 0 0 512 512" height="512" viewBox="0 0 512 512" width="512" xmlns="http://www.w3.org/2000/svg"><g><g><g clip-rule="evenodd" fill-rule="evenodd"><path d="m241 375.999v-368.499c0 135.714-94.883 248.5-233.5 248.5v134.998h218.5zm45 14.999h218.5v-134.998c-138.325 0-233.5-112.463-233.5-248.5v368.498z" fill="#c4e5f9"/><path d="m271 7.5h30v125.236c38.496 73.434 111.433 123.264 203.5 123.264v15c-88.552 0-160.276-43.284-203.501-108.845v228.843h-15l-15-15v-275.578-92.92zm-233.5 261.79c99.102-11.4 173.22-78.968 203.501-168.869v-92.921c0 125.961-81.605 231.695-203.501 246.67v-.005h-30v1.835 15 119.998h30z" fill="#a4d7f5"/><path d="m241 7.5c0 137.243-96.257 248.5-233.5 248.5v-248.5zm30 0c0 137.243 96.258 248.5 233.5 248.5v-248.5z" fill="#f492a7"/><path d="m37.5 254.165c-9.758 1.203-19.762 1.835-30 1.835v-248.5h30zm233.5-246.665c0 137.243 96.258 248.5 233.5 248.5v-1.835c-121.062-14.921-203.501-119.66-203.501-246.665z" fill="#f05d7a"/><path d="m7.5 166.001c101.24 0 233.5-85.851 233.5-158.501h-233.5zm263.5-158.501c0 72.65 132.26 158.501 233.5 158.501v-158.501z" fill="#f492a7"/><path d="m7.5 166.001c9.76 0 19.809-.806 30-2.313v-156.188h-30zm263.5-158.501c0 72.65 132.26 158.501 233.5 158.501v-2.313c-95.513-14.125-203.5-90.542-203.5-156.188h-30z" fill="#f05d7a"/><path d="m7.5 211.001c119.242 0 233.5-109.673 233.5-203.501 0 72.65-132.26 158.501-233.5 158.501zm263.5-203.501c0 93.828 114.258 203.501 233.5 203.501v-44.999c-101.241-.001-233.5-85.852-233.5-158.502z" fill="#f492a7"/><path d="m7.5 211.001c10.058 0 20.078-.78 30-2.265v-45.047c-10.141 1.42-19.24 2.232-30 2.313zm263.5-203.501c0 93.828 114.258 203.501 233.5 203.501v-2.283c-67.036-10.036-129.455-52.245-167.039-103.408-39.219-29.15-66.461-64.839-66.461-97.81z" fill="#f05d7a"/><path d="m271 7.5v368.499l15 14.999h218.5v30h-497v-30h218.5l15-14.999v-368.499z" fill="#e7cda2"/><path d="m7.5 390.998h30v30h-30z" fill="#dfbd84"/><path d="m7.5 420.998h497v83.502h-497z" fill="#e7cda2"/><path d="m7.5 420.998h30v83.502h-30z" fill="#dfbd84"/></g><g><path d="m357.749 280.462h60v15h-60z" fill="#fff" transform="matrix(.707 -.707 .707 .707 -90.051 358.522)"/></g><g><path d="m29.999 353.499h15v15h-15z" fill="#fff"/></g><g><path d="m437 467h15v15h-15z" fill="#fff"/></g><g><path d="m467 467h15v15h-15z" fill="#fff"/></g><g><path d="m482 45h-60v-15h60zm-74.999 0h-15v-15h15z" fill="#fff"/></g><g><path d="m94.249 280.462h60v15h-60z" fill="#fff" transform="matrix(.707 -.707 .707 .707 -167.228 172.199)"/></g></g><g><path d="m278.499 0h-15-14.999-15-233.5v54.467h15v-39.467h217.958c-8.669 63.343-123.677 139.419-217.958 143.329v-88.862h-15v194.033h7.5c67.582 0 129.285-26.712 173.744-75.216 23.244-25.358 40.883-55.571 52.256-88.809v273.418l-10.606 10.605h-207.894v-91.833h-15v220.335h422v-15h-407v-68.502h97.023v-15h-97.023v-15h214.106l19.394-19.393v-364.105h14.999v245.467h15v-160.992c11.373 33.239 29.012 63.451 52.256 88.809 44.459 48.504 106.163 75.216 173.745 75.216h7.5v-263.5zm-112.117 120.23c16.041-10.716 30.35-22.413 42.304-34.498-11.449 18.658-26.558 36.757-44.74 53.131-43.501 39.175-97.376 62.4-148.946 64.47v-29.994c47.97-1.874 103.945-21.417 151.382-53.109zm-151.382 128.153v-30.04c55.214-2.061 112.748-26.696 158.984-68.334 17.287-15.567 31.984-32.682 43.649-50.458-31.723 86.792-108.128 145.862-202.633 148.832zm482-90.054c-94.282-3.909-209.29-79.986-217.958-143.329h217.958zm0 15.01v29.994c-51.57-2.069-105.446-25.294-148.947-64.47-18.182-16.374-33.291-34.473-44.74-53.131 11.955 12.085 26.263 23.782 42.304 34.498 47.437 31.692 103.413 51.235 151.383 53.109zm-202.634-73.788c11.664 17.777 26.362 34.891 43.649 50.458 46.237 41.639 103.771 66.274 158.985 68.334v30.04c-94.505-2.97-170.91-62.04-202.634-148.832z"/><path d="m248.5 455.249h14.999v15h-14.999z"/><path d="m278.499 455.249h15v15h-15z"/><path d="m218.5 455.249h15v15h-15z"/><path d="m497 383.498h-207.895l-10.606-10.605v-97.426h-15v103.638l19.394 19.393h214.107v15h-369.977v15h369.976v68.502h-59.999v15h74.999l.001-218.5h-15z"/></g></g></svg>