<?xml version="1.0" encoding="iso-8859-1"?>
<!-- Generator: Adobe Illustrator 19.0.0, SVG Export Plug-In . SVG Version: 6.00 Build 0)  -->
<svg version="1.1" id="Capa_1" xmlns="http://www.w3.org/2000/svg" xmlns:xlink="http://www.w3.org/1999/xlink" x="0px" y="0px"
	 viewBox="0 0 512 512" style="enable-background:new 0 0 512 512;" xml:space="preserve">
<polygon style="fill:#FECE00;" points="432.136,226.467 420.63,133.02 7.604,133.02 7.604,349.748 423.096,349.748 504.396,349.748 
	504.396,242.905 "/>
<g>
	<path style="fill:#DDB201;" d="M148.877,349.355c-0.202-29.636-24.28-53.601-53.964-53.601s-53.763,23.965-53.964,53.601H148.877z"
		/>
	<rect x="7.604" y="328.38" style="fill:#DDB201;" width="497.13" height="21.372"/>
</g>
<circle style="fill:#898890;" cx="94.91" cy="349.75" r="40.646"/>
<g>
	<path style="fill:#DDB201;" d="M491.283,349.355c-0.202-29.636-24.28-53.601-53.964-53.601s-53.763,23.965-53.964,53.601H491.283z"
		/>
	<rect x="7.604" y="241.39" style="fill:#DDB201;" width="295.69" height="14.285"/>
	<rect x="7.604" y="278.68" style="fill:#DDB201;" width="295.69" height="14.285"/>
	<polygon style="fill:#DDB201;" points="422.609,149.094 7.604,149.094 7.604,133.02 420.63,133.02 	"/>
</g>
<g>
	<polygon style="fill:#B3D8F5;" points="430.948,216.818 406.847,216.818 406.847,162.709 424.286,162.709 	"/>
	<rect x="33.721" y="162.71" style="fill:#B3D8F5;" width="65.952" height="54.11"/>
	<rect x="123.52" y="162.71" style="fill:#B3D8F5;" width="65.952" height="54.11"/>
	<rect x="213.32" y="162.71" style="fill:#B3D8F5;" width="65.952" height="54.11"/>
</g>
<g>
	<rect x="213.32" y="162.71" style="fill:#78BAEC;" width="65.952" height="14.652"/>
	<polygon style="fill:#78BAEC;" points="426.089,177.36 406.847,177.36 406.847,162.709 424.392,162.709 	"/>
	<rect x="123.52" y="162.71" style="fill:#78BAEC;" width="65.952" height="14.652"/>
	<rect x="33.721" y="162.71" style="fill:#78BAEC;" width="65.952" height="14.652"/>
</g>
<rect x="303.3" y="162.71" style="fill:#77767E;" width="78.08" height="165.68"/>
<g>
	<rect x="303.3" y="162.71" style="fill:#57565C;" width="78.08" height="14.652"/>
	<rect x="303.3" y="313.73" style="fill:#57565C;" width="78.08" height="14.652"/>
</g>
<rect x="7.604" y="255.68" style="fill:#77767E;" width="295.69" height="23.01"/>
<circle style="fill:#ACABB1;" cx="94.91" cy="349.75" r="25.914"/>
<circle style="fill:#898890;" cx="437.32" cy="349.75" r="40.646"/>
<circle style="fill:#ACABB1;" cx="437.32" cy="349.75" r="25.914"/>
<g>
	<rect x="59.54" y="121.6" style="fill:#FFFFFF;" width="70.74" height="11.417"/>
	<rect x="267.92" y="121.6" style="fill:#FFFFFF;" width="70.74" height="11.417"/>
	<rect x="477.96" y="263.68" style="fill:#FFFFFF;" width="26.431" height="32.13"/>
	<circle style="fill:#FFFFFF;" cx="94.91" cy="349.75" r="5.511"/>
	<circle style="fill:#FFFFFF;" cx="437.32" cy="349.75" r="5.511"/>
</g>
<path d="M439.03,220.238l-7.26-58.96l-4.415-35.861h-81.086V114H260.32v11.417H137.888V114H51.939v11.417H0v122.652v38.215v71.069
	h47.267c1.552,9.76,6.045,18.548,12.533,25.44H33.72V398h161.087v-15.208h-64.781c6.489-6.891,10.982-15.679,12.533-25.44h247.112
	c1.552,9.76,6.045,18.548,12.533,25.44h-49.657V398h139.612v-15.208h-19.73c6.489-6.891,10.982-15.679,12.533-25.44H512v-53.933
	v-47.337v-19.245L439.03,220.238z M310.898,248.068v-77.755h23.831v150.463h-23.831v-34.493V248.068z M390.752,337.128
	c-0.06,0.221-0.127,0.44-0.184,0.663c-0.19,0.739-0.363,1.483-0.517,2.236c-0.01,0.048-0.016,0.096-0.026,0.145
	c-0.132,0.653-0.254,1.31-0.36,1.973H142.566c-0.105-0.662-0.228-1.319-0.36-1.973c-0.01-0.048-0.016-0.097-0.026-0.145
	c-0.154-0.752-0.328-1.496-0.517-2.236c-0.057-0.223-0.124-0.441-0.184-0.663c-0.103-0.382-0.205-0.767-0.317-1.145h154.529h93.286
	h2.095C390.957,336.363,390.857,336.746,390.752,337.128z M373.768,320.776h-23.832V170.312h23.832V320.776z M295.69,271.075H15.208
	v-7.8H295.69V271.075z M295.69,286.283v34.493H133.473c-0.421-0.559-0.853-1.107-1.297-1.647c-0.145-0.176-0.298-0.346-0.445-0.519
	c-0.329-0.388-0.659-0.777-1-1.154c-0.198-0.219-0.403-0.431-0.604-0.646c-0.302-0.322-0.604-0.645-0.915-0.959
	c-0.222-0.225-0.451-0.444-0.677-0.665c-0.302-0.294-0.606-0.587-0.917-0.874c-0.238-0.22-0.481-0.436-0.724-0.651
	c-0.31-0.276-0.624-0.547-0.94-0.815c-0.25-0.211-0.503-0.42-0.758-0.626c-0.322-0.261-0.649-0.517-0.978-0.77
	c-0.258-0.198-0.516-0.394-0.778-0.587c-0.341-0.25-0.686-0.494-1.034-0.736c-0.261-0.181-0.519-0.364-0.783-0.539
	c-0.368-0.245-0.742-0.482-1.117-0.717c-0.252-0.158-0.502-0.321-0.757-0.474c-0.432-0.261-0.871-0.508-1.311-0.754
	c-0.206-0.116-0.409-0.237-0.616-0.351c-0.649-0.352-1.307-0.689-1.974-1.012c-0.144-0.07-0.293-0.132-0.438-0.2
	c-0.529-0.249-1.062-0.495-1.601-0.725c-0.252-0.107-0.51-0.206-0.764-0.309c-0.439-0.178-0.879-0.357-1.324-0.523
	c-0.287-0.107-0.578-0.206-0.867-0.307c-0.422-0.148-0.844-0.294-1.269-0.431c-0.305-0.097-0.612-0.189-0.921-0.28
	c-0.419-0.125-0.839-0.246-1.263-0.36c-0.315-0.084-0.633-0.165-0.951-0.243c-0.426-0.104-0.854-0.204-1.284-0.297
	c-0.319-0.069-0.639-0.137-0.96-0.2c-0.44-0.086-0.883-0.163-1.327-0.237c-0.316-0.053-0.632-0.106-0.949-0.153
	c-0.464-0.068-0.933-0.124-1.401-0.178c-0.302-0.035-0.603-0.075-0.908-0.104c-0.52-0.051-1.044-0.086-1.568-0.12
	c-0.257-0.016-0.512-0.041-0.77-0.053c-0.785-0.039-1.574-0.06-2.367-0.06c-0.794,0-1.583,0.022-2.367,0.06
	c-0.258,0.012-0.512,0.036-0.767,0.053c-0.525,0.033-1.05,0.069-1.57,0.12c-0.303,0.029-0.604,0.069-0.905,0.104
	c-0.469,0.055-0.939,0.111-1.404,0.179c-0.317,0.047-0.631,0.1-0.946,0.153c-0.446,0.074-0.89,0.152-1.331,0.238
	c-0.319,0.063-0.638,0.13-0.955,0.199c-0.432,0.094-0.862,0.193-1.29,0.298c-0.316,0.078-0.631,0.158-0.944,0.241
	c-0.427,0.115-0.851,0.236-1.273,0.362c-0.304,0.09-0.608,0.18-0.91,0.277c-0.431,0.138-0.858,0.286-1.284,0.435
	c-0.285,0.1-0.571,0.197-0.853,0.302c-0.453,0.169-0.9,0.35-1.347,0.532c-0.246,0.1-0.497,0.196-0.741,0.3
	c-0.562,0.239-1.115,0.494-1.665,0.754c-0.124,0.058-0.249,0.112-0.372,0.17c-0.67,0.324-1.332,0.664-1.985,1.018
	c-0.19,0.102-0.374,0.214-0.563,0.319c-0.459,0.257-0.918,0.516-1.368,0.787c-0.242,0.146-0.48,0.301-0.72,0.451
	c-0.388,0.243-0.776,0.488-1.157,0.742c-0.253,0.169-0.502,0.345-0.752,0.518c-0.359,0.249-0.716,0.501-1.067,0.759
	c-0.252,0.186-0.501,0.375-0.749,0.566c-0.341,0.262-0.678,0.526-1.012,0.796c-0.244,0.198-0.487,0.397-0.727,0.599
	c-0.33,0.277-0.654,0.56-0.975,0.845c-0.232,0.206-0.464,0.413-0.692,0.624c-0.322,0.297-0.638,0.602-0.952,0.907
	c-0.215,0.21-0.432,0.418-0.644,0.632c-0.326,0.331-0.644,0.668-0.96,1.008c-0.187,0.2-0.376,0.395-0.56,0.598
	c-0.367,0.407-0.724,0.824-1.078,1.243c-0.122,0.145-0.249,0.285-0.369,0.431c-0.446,0.542-0.882,1.094-1.305,1.656H15.208v-34.494
	H295.69V286.283z M15.208,335.984h33.457c-0.116,0.388-0.22,0.782-0.326,1.174c-0.057,0.21-0.121,0.418-0.174,0.629
	c-0.19,0.74-0.364,1.487-0.518,2.241c-0.009,0.042-0.014,0.084-0.023,0.126c-0.134,0.659-0.257,1.322-0.363,1.99H15.208V335.984z
	 M61.87,349.748c0-18.22,14.823-33.043,33.043-33.043c15.942,0,29.284,11.349,32.371,26.392c0.441,2.149,0.672,4.374,0.672,6.651
	c0,18.22-14.823,33.044-33.044,33.044C76.694,382.791,61.87,367.968,61.87,349.748z M404.275,349.748
	c0-2.277,0.232-4.502,0.672-6.651c3.086-15.043,16.429-26.392,32.371-26.392c18.22,0,33.043,14.824,33.043,33.043
	c0,18.22-14.823,33.044-33.043,33.044C419.098,382.791,404.275,367.968,404.275,349.748z M484.971,342.144
	c-0.106-0.668-0.229-1.331-0.363-1.99c-0.008-0.042-0.014-0.084-0.023-0.126c-0.155-0.753-0.329-1.501-0.518-2.241
	c-0.054-0.211-0.118-0.419-0.174-0.629c-0.106-0.392-0.21-0.786-0.326-1.174h13.226v6.16H484.971L484.971,342.144L484.971,342.144z
	 M496.792,288.21h-11.221v-16.921h11.221V288.21z M470.363,256.082v47.337h26.429v17.357h-20.913
	c-0.423-0.562-0.859-1.113-1.305-1.656c-0.121-0.146-0.247-0.286-0.369-0.431c-0.354-0.42-0.71-0.836-1.078-1.243
	c-0.182-0.203-0.373-0.398-0.56-0.598c-0.317-0.34-0.635-0.677-0.96-1.008c-0.211-0.214-0.428-0.422-0.644-0.632
	c-0.314-0.306-0.63-0.61-0.952-0.907c-0.228-0.211-0.46-0.417-0.692-0.624c-0.321-0.286-0.646-0.568-0.975-0.845
	c-0.24-0.203-0.483-0.401-0.727-0.599c-0.334-0.27-0.671-0.534-1.012-0.796c-0.248-0.191-0.497-0.38-0.749-0.566
	c-0.352-0.259-0.709-0.51-1.067-0.759c-0.25-0.174-0.499-0.35-0.752-0.518c-0.38-0.254-0.768-0.499-1.157-0.742
	c-0.24-0.15-0.477-0.305-0.72-0.451c-0.45-0.272-0.908-0.53-1.368-0.787c-0.189-0.105-0.373-0.217-0.563-0.319
	c-0.653-0.354-1.314-0.693-1.985-1.018c-0.123-0.059-0.249-0.113-0.372-0.17c-0.551-0.261-1.104-0.514-1.665-0.754
	c-0.244-0.104-0.494-0.2-0.741-0.3c-0.447-0.182-0.894-0.363-1.347-0.532c-0.282-0.105-0.569-0.202-0.853-0.302
	c-0.426-0.15-0.853-0.297-1.284-0.435c-0.302-0.096-0.606-0.187-0.91-0.277c-0.423-0.126-0.847-0.248-1.273-0.362
	c-0.313-0.084-0.628-0.164-0.944-0.241c-0.428-0.105-0.858-0.205-1.29-0.298c-0.317-0.069-0.635-0.136-0.955-0.199
	c-0.441-0.086-0.886-0.164-1.331-0.238c-0.314-0.053-0.629-0.106-0.946-0.153c-0.465-0.068-0.935-0.125-1.404-0.179
	c-0.302-0.035-0.602-0.075-0.905-0.104c-0.52-0.051-1.045-0.086-1.57-0.12c-0.257-0.016-0.511-0.041-0.767-0.053
	c-0.785-0.039-1.574-0.06-2.367-0.06c-0.794,0-1.583,0.022-2.367,0.06c-0.258,0.012-0.512,0.036-0.77,0.053
	c-0.524,0.033-1.048,0.069-1.568,0.12c-0.304,0.029-0.605,0.069-0.908,0.104c-0.468,0.055-0.937,0.111-1.401,0.178
	c-0.318,0.047-0.634,0.1-0.949,0.153c-0.444,0.074-0.887,0.151-1.327,0.237c-0.321,0.063-0.641,0.131-0.96,0.2
	c-0.43,0.093-0.858,0.192-1.284,0.297c-0.318,0.078-0.636,0.159-0.951,0.243c-0.424,0.114-0.845,0.235-1.263,0.36
	c-0.308,0.091-0.615,0.182-0.921,0.28c-0.426,0.137-0.848,0.283-1.268,0.43c-0.29,0.101-0.581,0.201-0.869,0.307
	c-0.445,0.166-0.884,0.344-1.323,0.522c-0.255,0.103-0.513,0.202-0.765,0.31c-0.539,0.23-1.072,0.475-1.601,0.725
	c-0.145,0.068-0.294,0.131-0.438,0.2c-0.667,0.322-1.324,0.66-1.974,1.012c-0.208,0.113-0.411,0.234-0.616,0.351
	c-0.44,0.246-0.88,0.495-1.311,0.754c-0.255,0.154-0.505,0.316-0.757,0.474c-0.375,0.235-0.749,0.471-1.117,0.717
	c-0.264,0.176-0.523,0.359-0.783,0.539c-0.348,0.241-0.693,0.486-1.034,0.736c-0.262,0.193-0.52,0.389-0.778,0.587
	c-0.33,0.252-0.656,0.509-0.978,0.77c-0.254,0.206-0.508,0.415-0.758,0.626c-0.317,0.268-0.63,0.539-0.94,0.815
	c-0.243,0.215-0.486,0.431-0.724,0.651c-0.31,0.286-0.613,0.579-0.917,0.874c-0.227,0.221-0.455,0.44-0.677,0.665
	c-0.31,0.314-0.612,0.637-0.914,0.959c-0.202,0.215-0.407,0.427-0.604,0.646c-0.341,0.378-0.671,0.765-1,1.154
	c-0.147,0.174-0.301,0.344-0.445,0.519c-0.444,0.539-0.876,1.088-1.297,1.647h-9.783v-165.67h-93.286v92.963H15.208V140.624h36.731
	h85.949H260.32h85.949h67.636l1.783,14.481h-16.445v69.318h24.981l1.019,8.275l71.549,16.276v7.108H470.363L470.363,256.082
	L470.363,256.082z M422.349,209.213h-7.899v-38.902h3.109L422.349,209.213z"/>
<path d="M94.913,336.633c-7.232,0-13.115,5.883-13.115,13.115s5.883,13.115,13.115,13.115c7.232,0,13.116-5.883,13.116-13.115
	C108.029,342.517,102.145,336.633,94.913,336.633z M94.913,351.841c-1.154,0-2.092-0.939-2.092-2.093s0.939-2.093,2.092-2.093
	c1.155,0,2.093,0.939,2.093,2.093C97.005,350.902,96.067,351.841,94.913,351.841z"/>
<path d="M437.319,336.633c-7.232,0-13.116,5.883-13.116,13.115s5.884,13.115,13.116,13.115s13.115-5.883,13.115-13.115
	C450.434,342.517,444.551,336.633,437.319,336.633z M437.319,351.841c-1.155,0-2.093-0.939-2.093-2.093s0.939-2.093,2.093-2.093
	s2.092,0.939,2.092,2.093S438.473,351.841,437.319,351.841z"/>
<rect x="256" y="382.79" width="81.81" height="15.208"/>
<rect x="208.34" y="382.79" width="31.612" height="15.208"/>
<path d="M26.116,224.421h81.156v-69.318H26.116V224.421z M41.324,170.312h50.74v38.902h-50.74V170.312z"/>
<path d="M115.917,224.421h81.155v-69.318h-81.155C115.917,155.103,115.917,224.421,115.917,224.421z M131.125,170.312h50.739v38.902
	h-50.739V170.312z"/>
<path d="M205.717,224.421h81.156v-69.318h-81.156L205.717,224.421L205.717,224.421z M220.924,170.312h50.74v38.902h-50.74V170.312z"
	/>
<g>
</g>
<g>
</g>
<g>
</g>
<g>
</g>
<g>
</g>
<g>
</g>
<g>
</g>
<g>
</g>
<g>
</g>
<g>
</g>
<g>
</g>
<g>
</g>
<g>
</g>
<g>
</g>
<g>
</g>
</svg>
