<?xml version="1.0" encoding="iso-8859-1"?>
<!-- Generator: Adobe Illustrator 19.0.0, SVG Export Plug-In . SVG Version: 6.00 Build 0)  -->
<svg version="1.1" id="Capa_1" xmlns="http://www.w3.org/2000/svg" xmlns:xlink="http://www.w3.org/1999/xlink" x="0px" y="0px"
	 viewBox="0 0 512 512" style="enable-background:new 0 0 512 512;" xml:space="preserve">
<path style="fill:#ED593B;" d="M504.5,125.833H7.5l0,0c0-46.944,38.056-85,85-85h327C466.444,40.833,504.5,78.889,504.5,125.833
	L504.5,125.833z"/>
<g>
	<rect x="29" y="125.83" style="fill:#B0BEC5;" width="30" height="345.33"/>
	<rect x="453" y="125.83" style="fill:#B0BEC5;" width="30" height="345.33"/>
</g>
<path style="fill:#E23423;" d="M425,125.833H87l0,0c0-46.944,38.056-85,85-85h168C386.944,40.833,425,78.889,425,125.833
	L425,125.833z"/>
<path style="fill:#ED593B;" d="M374,125.833H138l0,0c0-46.944,38.056-85,85-85h66C335.944,40.833,374,78.889,374,125.833
	L374,125.833z"/>
<rect x="59" y="161.83" style="fill:#55A3F9;" width="394" height="189"/>
<path style="fill:#B0EF60;" d="M89,305.833v-99c0-8.284,6.716-15,15-15h100c8.284,0,15,6.716,15,15v99c0,8.284-6.716,15-15,15H104
	C95.716,320.833,89,314.118,89,305.833z"/>
<path style="fill:#AD8761;" d="M409,425.833H216c-8.284,0-15-6.716-15-15l0,0c0-8.284,6.716-15,15-15h193c8.284,0,15,6.716,15,15
	l0,0C424,419.118,417.284,425.833,409,425.833z"/>
<g>
	<rect x="29" y="125.83" style="fill:#90A4AE;" width="30" height="20"/>
	<rect x="453" y="125.83" style="fill:#90A4AE;" width="30" height="20"/>
</g>
<path d="M419.5,33.333h-327c-51.005,0-92.5,41.495-92.5,92.5v7.5h21.5v330.333H0v15h512v-15h-21.5V133.333H512v-7.5
	C512,74.829,470.505,33.333,419.5,33.333 M340,48.333c40.204,0,73.355,30.772,77.14,70h-35.945
	c-2.361-29.288-18.424-54.763-41.756-70H340z M289,48.333c40.204,0,73.355,30.772,77.14,70H145.86c3.785-39.228,36.937-70,77.14-70
	H289z M172.561,48.333c-23.332,15.237-39.395,40.712-41.756,70H94.86c3.785-39.228,36.937-70,77.14-70H172.561z M15.36,118.333
	c3.785-39.228,36.937-70,77.14-70h29.061c-23.332,15.237-39.395,40.712-41.756,70l0,0H15.36L15.36,118.333z M51.5,133.333v330.333
	l0,0h-15V133.333H51.5L51.5,133.333z M394.5,463.667h-164v-30.333h164V463.667z M216,418.333c-4.136,0-7.5-3.364-7.5-7.5
	s3.364-7.5,7.5-7.5h193c4.136,0,7.5,3.364,7.5,7.5s-3.364,7.5-7.5,7.5H216z M445.5,463.667h-36v-30.346
	c12.176-0.268,22-10.249,22-22.487c0-12.406-10.094-22.5-22.5-22.5H216c-12.407,0-22.5,10.094-22.5,22.5
	c0,12.239,9.824,22.219,22,22.487v30.346h-149V358.333h379V463.667z M445.5,343.333h-379v-174h379V343.333z M445.5,154.333h-379v-21
	l0,0l0,0h379l0,0l0,0V154.333z M475.5,463.667h-15l0,0V133.333l0,0h15V463.667z M432.195,118.333L432.195,118.333
	c-2.361-29.288-18.424-54.763-41.756-70H419.5c40.204,0,73.355,30.772,77.14,70l0,0H432.195z"/>
<path d="M104,328.333h100c12.407,0,22.5-10.094,22.5-22.5v-99c0-12.406-10.093-22.5-22.5-22.5H104c-12.407,0-22.5,10.094-22.5,22.5
	v99C81.5,318.24,91.593,328.333,104,328.333z M96.5,206.833c0-4.136,3.364-7.5,7.5-7.5h100c4.136,0,7.5,3.364,7.5,7.5v99
	c0,4.136-3.364,7.5-7.5,7.5H104c-4.136,0-7.5-3.364-7.5-7.5V206.833z"/>
<g>
	<path style="fill:#FFFFFF;" d="M52.7,99.935l-12.558-8.203c6.336-9.699,15.203-17.443,25.643-22.397l6.431,13.553
		C64.272,86.656,57.524,92.551,52.7,99.935z"/>
	<path style="fill:#FFFFFF;" d="M459.3,99.935c-4.262-6.523-10.114-11.96-16.925-15.721l7.25-13.131
		c8.948,4.94,16.636,12.08,22.233,20.648L459.3,99.935z"/>
	<polygon style="fill:#FFFFFF;" points="196.5,298.333 159,298.333 159,283.333 181.5,283.333 181.5,260.833 196.5,260.833 	"/>
	<path style="fill:#FFFFFF;" d="M423,199.333h-15v-15h15V199.333z M393,199.333h-15v-15h15V199.333z M363,199.333h-90v-15h90
		V199.333z M258,199.333h-15v-15h15V199.333z"/>
	<path style="fill:#FFFFFF;" d="M423,225.133h-15v-15h15V225.133z M393,225.133h-90v-15h90V225.133z M288,225.133h-45v-15h45
		V225.133z"/>
	<path style="fill:#FFFFFF;" d="M423,250.933h-65v-15h65V250.933z M343,250.933h-70v-15h70V250.933z M258,250.933h-15v-15h15
		V250.933z"/>
	<path style="fill:#FFFFFF;" d="M423,276.734h-15v-15h15V276.734z M393,276.734H243v-15h150V276.734z"/>
	<path style="fill:#FFFFFF;" d="M423,302.534h-15v-15h15V302.534z M393,302.534h-15v-15h15V302.534z M363,302.534h-90v-15h90
		V302.534z M258,302.534h-15v-15h15V302.534z"/>
	<rect x="243" y="313.33" style="fill:#FFFFFF;" width="92" height="15"/>
	<path style="fill:#FFFFFF;" d="M336,103.333h-15v-15h15V103.333z M306,103.333H206v-15h100V103.333z M191,103.333h-15v-15h15
		V103.333z"/>
	<polygon style="fill:#FFFFFF;" points="126.5,251.833 111.5,251.833 111.5,214.333 149,214.333 149,229.333 126.5,229.333 	"/>
</g>
<g>
</g>
<g>
</g>
<g>
</g>
<g>
</g>
<g>
</g>
<g>
</g>
<g>
</g>
<g>
</g>
<g>
</g>
<g>
</g>
<g>
</g>
<g>
</g>
<g>
</g>
<g>
</g>
<g>
</g>
</svg>
