<?xml version="1.0" encoding="iso-8859-1"?>
<!-- Generator: Adobe Illustrator 19.0.0, SVG Export Plug-In . SVG Version: 6.00 Build 0)  -->
<svg version="1.1" id="Layer_1" xmlns="http://www.w3.org/2000/svg" xmlns:xlink="http://www.w3.org/1999/xlink" x="0px" y="0px"
	 viewBox="0 0 512 512" style="enable-background:new 0 0 512 512;" xml:space="preserve">
<circle style="fill:#FFFFFF;" cx="260.884" cy="253.43" r="215.904"/>
<circle style="fill:#A4E276;" cx="260.884" cy="253.43" r="179.92"/>
<path style="fill:#FFFFFF;" d="M131.794,194.408l-13.984-6.502c2.107-4.532,4.451-9.005,6.965-13.296l13.304,7.799
	C135.811,186.281,133.696,190.316,131.794,194.408z M146.112,170.205l-12.424-9.137c29.399-39.976,76.697-63.843,126.522-63.843
	l1.092,0.003l-0.088,15.422l-1.003-0.003C215.27,112.647,172.617,134.165,146.112,170.205z"/>
<path style="fill:#89AA63;" d="M243.216,287.643l-104.201,20.528c-8.328,1.641-13.451-8.806-7.055-14.385l172.753-150.699
	c5.365-4.68,13.744-0.87,13.744,6.249v227.431c0,8.506-11.276,11.498-15.495,4.112l-50.942-89.212
	C250.255,288.575,246.711,286.954,243.216,287.643z"/>
<polygon style="fill:#FC5649;" points="180.039,279.133 297.896,176.321 297.896,330.538 259.592,263.46 "/>
<polygon points="77.365,291.984 77.365,222.586 61.944,222.586 61.944,276.562 46.522,276.562 46.522,241.092 31.1,241.092 
	31.1,276.562 15.679,276.562 15.679,222.586 0.257,222.586 0.257,291.984 31.1,291.984 46.522,291.984 "/>
<polygon points="237.751,17.106 277.605,69.912 299.438,69.912 299.438,0.514 284.016,0.514 284.016,52.806 244.162,0 222.329,0 
	222.329,69.398 237.751,69.398 "/>
<polygon points="511.743,230.297 511.743,214.875 449.542,214.875 449.542,291.984 511.743,291.984 511.743,276.562 
	464.964,276.562 464.964,261.141 511.743,261.141 511.743,245.719 464.964,245.719 464.964,230.297 "/>
<path d="M226.442,458.024c0,12.755,10.377,23.133,23.133,23.133h22.618c4.252,0,7.711,3.459,7.711,7.711s-3.459,7.711-7.711,7.711
	h-46.265V512h46.265c12.756,0,23.133-10.378,23.133-23.133c0-12.755-10.377-23.133-23.133-23.133h-22.618
	c-4.252,0-7.711-3.459-7.711-7.711s3.459-7.711,7.711-7.711h46.265v-15.422h-46.265
	C236.818,434.892,226.442,445.269,226.442,458.024z"/>
<path d="M310.459,455.668l3.66,14.982c39.615-9.677,75.881-30.118,104.878-59.112c28.997-28.995,49.439-65.259,59.116-104.872
	l-14.981-3.661C444.644,378.684,386.144,437.181,310.459,455.668z"/>
<path d="M58.635,303.005l-14.981,3.661c9.677,39.612,30.119,75.877,59.116,104.872c28.997,28.995,65.263,49.436,104.878,59.112
	l3.66-14.982C135.623,437.181,77.123,378.684,58.635,303.005z"/>
<path d="M211.308,51.181l-3.66-14.982c-39.612,9.678-75.877,30.12-104.872,59.116S53.342,160.58,43.664,200.195l14.981,3.659
	C77.132,128.17,135.63,69.669,211.308,51.181z"/>
<path d="M463.132,203.854l14.981-3.661c-9.677-39.612-30.119-75.877-59.116-104.872c-28.997-28.995-65.263-49.436-104.878-59.112
	l-3.66,14.982C386.144,69.678,444.644,128.176,463.132,203.854z"/>
<path d="M255.644,272.096l49.962,87.495V159.363L153.249,292.269L255.644,272.096z M290.185,301.485l-26.645-46.662l-56.713,11.172
	l83.357-72.716V301.485z"/>
<g>
</g>
<g>
</g>
<g>
</g>
<g>
</g>
<g>
</g>
<g>
</g>
<g>
</g>
<g>
</g>
<g>
</g>
<g>
</g>
<g>
</g>
<g>
</g>
<g>
</g>
<g>
</g>
<g>
</g>
</svg>
