<?xml version="1.0" encoding="iso-8859-1"?>
<!-- Generator: Adobe Illustrator 19.0.0, SVG Export Plug-In . SVG Version: 6.00 Build 0)  -->
<svg xmlns="http://www.w3.org/2000/svg" xmlns:xlink="http://www.w3.org/1999/xlink" version="1.1" id="Layer_1" x="0px" y="0px" viewBox="0 0 508.646 508.646" style="enable-background:new 0 0 508.646 508.646;" xml:space="preserve" width="512" height="512">
<g>
	<g>
		<rect x="7.181" y="7.271" style="fill:#FFE475;" width="493.646" height="493.646"/>
		<rect x="7.181" y="7.271" style="fill:#FF9901;" width="63.696" height="493.646"/>
		<g>
			<polygon style="fill:#F2F2F2;" points="365.473,453.144 365.473,500.916 333.624,500.916 333.624,469.068 349.548,469.068    "/>
			<polygon style="fill:#F2F2F2;" points="190.308,469.068 190.308,500.916 158.46,500.916 158.46,453.144 174.384,469.068    "/>
			<polygon style="fill:#FB6F4F;" points="333.624,469.068 190.308,469.068 174.384,469.068 158.46,453.144 158.46,405.372      182.346,405.372 341.586,405.372 365.473,405.372 365.473,453.144 349.548,469.068    "/>
			<polygon style="fill:#C7E2F7;" points="317.7,357.6 341.586,405.372 182.346,405.372 206.232,357.6 246.042,357.6 301.776,357.6         "/>
			<rect x="246.042" y="333.714" style="fill:#FB6F4F;" width="55.734" height="23.886"/>
			<g>
				<polygon style="fill:#FF5023;" points="190.308,405.372 182.346,405.372 158.46,405.372 158.46,453.144 174.384,469.068       190.308,469.068 206.232,469.068 190.308,453.144     "/>
			</g>
			<g>
				<polygon style="fill:#91C4FD;" points="206.232,357.6 182.346,405.372 214.194,405.372 238.08,357.6     "/>
			</g>
		</g>
		<circle style="fill:#D6D6E2;" cx="142.536" cy="277.98" r="39.81"/>
		<circle style="fill:#D6D6E2;" cx="357.511" cy="134.663" r="39.81"/>
	</g>
	<g>
		<g>
			<g>
				<rect x="214.512" y="429.95" style="fill:#FFFFFF;" width="95.544" height="15"/>
			</g>
			<g>
				<rect x="134.892" y="270.709" style="fill:#FFFFFF;" width="15.924" height="15"/>
			</g>
			<g>
				<rect x="349.867" y="127.393" style="fill:#FFFFFF;" width="15.924" height="15"/>
			</g>
			<g>
				<rect x="230.437" y="55.734" style="fill:#FFFFFF;" width="15.924" height="15"/>
			</g>
			<g>
				<rect x="166.74" y="55.734" style="fill:#FFFFFF;" width="15.924" height="15"/>
			</g>
			<g>
				<polygon style="fill:#FFFFFF;" points="476.797,476.798 437.449,476.798 437.449,461.798 461.797,461.798 461.797,429.487       476.797,429.487     "/>
			</g>
			<g>
				<rect x="31.386" y="461.798" style="fill:#FFFFFF;" width="15.924" height="15"/>
			</g>
			<g>
				<path style="fill:#231F20;" d="M322.654,350.329h-13.059v-23.886H238.86v23.886h-36.945l-23.886,47.772h-26.751v55.272v3.106      v52.166h46.848v-31.848h48.234v-15h-68.552l-11.53-11.531v-37.166h4.251H354.04h4.251v37.166l-11.531,11.531h-76.514v15h56.196      v31.848h46.848V456.48v-3.106v-55.272H346.54L322.654,350.329z M171.596,476.798h11.531v16.848h-16.848V471.48L171.596,476.798z       M358.291,493.646h-16.848v-16.848h11.53l5.318-5.318V493.646z M253.86,341.443h40.734v8.886H253.86V341.443z M194.8,398.102      l16.386-32.772h102.198l16.386,32.772H194.8z"/>
				<rect x="182.665" y="429.95" style="fill:#231F20;" width="15.924" height="15"/>
				<rect x="325.981" y="429.95" style="fill:#231F20;" width="15.924" height="15"/>
				<polygon style="fill:#231F20;" points="493.646,493.646 389.677,493.646 389.677,508.646 508.646,508.646 508.646,357.829       493.646,357.829     "/>
				<polygon style="fill:#231F20;" points="206.55,0 206.55,15 493.646,15 493.646,333.943 508.646,333.943 508.646,0     "/>
				<polygon style="fill:#231F20;" points="15,15 182.664,15 182.664,0 0,0 0,508.646 134.892,508.646 134.892,493.646 15,493.646           "/>
				<path style="fill:#231F20;" d="M95.544,278.209c0,26.087,21.223,47.31,47.31,47.31s47.311-21.223,47.311-47.31      s-21.224-47.31-47.311-47.31S95.544,252.122,95.544,278.209z M175.165,278.209c0,17.816-14.495,32.31-32.311,32.31      s-32.31-14.494-32.31-32.31s14.494-32.31,32.31-32.31S175.165,260.393,175.165,278.209z"/>
				<path style="fill:#231F20;" d="M405.139,134.893c0-26.087-21.223-47.31-47.31-47.31s-47.311,21.223-47.311,47.31      s21.224,47.31,47.311,47.31S405.139,160.979,405.139,134.893z M325.519,134.893c0-17.816,14.495-32.31,32.311-32.31      s32.31,14.494,32.31,32.31s-14.494,32.31-32.31,32.31S325.519,152.708,325.519,134.893z"/>
				<polygon style="fill:#231F20;" points="70.734,214.051 460.873,214.051 460.873,55.734 262.285,55.734 262.285,70.734       445.873,70.734 445.873,199.051 55.734,199.051 55.734,357.367 150.816,357.367 150.816,342.367 70.734,342.367     "/>
				<rect x="198.588" y="55.734" style="fill:#231F20;" width="15.924" height="15"/>
				<polygon style="fill:#231F20;" points="130.555,41.041 118.968,52.628 107.381,41.041 96.775,51.647 108.362,63.234       96.775,74.821 107.381,85.428 118.968,73.841 130.555,85.428 141.161,74.821 129.574,63.234 141.161,51.647     "/>
				<rect x="63.234" y="461.798" style="fill:#231F20;" width="15.924" height="15"/>
			</g>
			<g>
				<rect x="95.082" y="461.798" style="fill:#FFFFFF;" width="15.924" height="15"/>
			</g>
		</g>
	</g>
</g>















</svg>
