<?xml version="1.0" encoding="iso-8859-1"?>
<!-- Generator: Adobe Illustrator 19.0.0, SVG Export Plug-In . SVG Version: 6.00 Build 0)  -->
<svg xmlns="http://www.w3.org/2000/svg" xmlns:xlink="http://www.w3.org/1999/xlink" version="1.1" id="Layer_1" x="0px" y="0px" viewBox="0 0 508.646 508.646" style="enable-background:new 0 0 508.646 508.646;" xml:space="preserve" width="512" height="512">
<g>
	<g>
		<rect x="7.219" y="7.27" style="fill:#D6D6E2;" width="350.329" height="238.861"/>
		<g>
			<circle style="fill:#9DD665;" cx="349.549" cy="349.637" r="151.278"/>
			<g>
				<path style="fill:#73BE7A;" d="M277.89,349.637c0-69.747,47.267-128.31,111.468-145.808c-12.704-3.462-26.009-5.47-39.81-5.47      c-83.549,0-151.278,67.73-151.278,151.278S266,500.916,349.549,500.916c13.801,0,27.106-2.008,39.81-5.47      C325.157,477.948,277.89,419.385,277.89,349.637z"/>
			</g>
		</g>
		<rect x="7.181" y="7.27" style="fill:#BFBCCA;" width="55.734" height="238.861"/>
		<g>
			<path style="fill:#FFE475;" d="M190.308,190.397v23.886H46.992v-23.886c0-39.571,32.087-71.658,71.658-71.658     S190.308,150.826,190.308,190.397z"/>
			<path style="fill:#FFE475;" d="M118.65,39.118c21.975,0,39.81,17.835,39.81,39.81s-17.835,39.81-39.81,39.81     s-39.81-17.835-39.81-39.81S96.675,39.118,118.65,39.118z"/>
			<g>
				<path style="fill:#FF9901;" d="M138.555,121.6c-6.326-1.828-12.99-2.861-19.905-2.861c-39.571,0-71.658,32.087-71.658,71.658      v23.886h39.81v-23.886C86.802,157.74,108.676,130.234,138.555,121.6z"/>
			</g>
			<g>
				<path style="fill:#FF9901;" d="M110.688,78.929c0-16.306,9.842-30.293,23.886-36.445c-4.883-2.139-10.254-3.365-15.924-3.365      c-21.975,0-39.81,17.835-39.81,39.81s17.835,39.81,39.81,39.81c5.67,0,11.041-1.226,15.924-3.365      C120.53,109.221,110.688,95.234,110.688,78.929z"/>
			</g>
		</g>
		<g>
			<polygon style="fill:#F2F2F2;" points="453.055,365.561 453.055,413.334 421.207,413.334 421.207,381.485 437.131,381.485    "/>
			<polygon style="fill:#F2F2F2;" points="277.89,381.485 277.89,413.334 246.042,413.334 246.042,365.561 261.966,381.485    "/>
			<polygon style="fill:#D6D6E2;" points="421.207,381.485 277.89,381.485 261.966,381.485 246.042,365.561 246.042,317.789      269.928,317.789 429.169,317.789 453.055,317.789 453.055,365.561 437.131,381.485    "/>
			<polygon style="fill:#C7E2F7;" points="405.283,270.017 429.169,317.789 269.928,317.789 293.814,270.017 333.624,270.017      389.359,270.017    "/>
			<rect x="333.624" y="246.131" style="fill:#D6D6E2;" width="55.734" height="23.886"/>
			<g>
				<polygon style="fill:#BFBCCA;" points="277.89,317.789 269.928,317.789 246.042,317.789 246.042,365.561 261.966,381.485       277.89,381.485 293.814,381.485 277.89,365.561     "/>
			</g>
			<g>
				<polygon style="fill:#91C4FD;" points="293.814,270.017 269.928,317.789 301.776,317.789 325.662,270.017     "/>
			</g>
		</g>
	</g>
	<g>
		<g>
			<g>
				<rect x="302.095" y="342.367" style="fill:#FFFFFF;" width="95.544" height="15"/>
			</g>
			<g>
				<rect x="118.968" y="175.164" style="fill:#FFFFFF;" width="15.924" height="15"/>
			</g>
			<g>
				<rect x="190.626" y="47.771" style="fill:#FFFFFF;" width="135.354" height="15"/>
			</g>
			<g>
				<rect x="278.208" y="79.62" style="fill:#FFFFFF;" width="15.924" height="15"/>
			</g>
			<g>
				<rect x="254.323" y="143.316" style="fill:#FFFFFF;" width="71.658" height="15"/>
			</g>
			<g>
				<rect x="341.905" y="421.987" style="fill:#FFFFFF;" width="15.924" height="15"/>
			</g>
			<g>
				<rect x="270.247" y="342.367" style="fill:#231F20;" width="15.924" height="15"/>
				<rect x="413.563" y="342.367" style="fill:#231F20;" width="15.924" height="15"/>
				<path style="fill:#231F20;" d="M326.443,238.86v23.887h-36.945l-23.886,47.771H238.86v55.272v3.106v52.166h46.848v-31.849      h72.121v-15h-92.438l-11.531-11.53v-37.166h4.251h183.511h4.25v37.166l-11.53,11.53h-52.628v15h32.31v31.849h46.848v-52.166      v-3.106v-55.272h-26.751l-23.886-47.771h-13.059V238.86H326.443z M259.178,389.215h11.53v16.849H253.86v-22.166L259.178,389.215      z M445.873,406.063h-16.848v-16.849h11.531l5.317-5.317V406.063z M341.443,253.86h40.734v8.887h-40.734V253.86z       M417.352,310.519h-134.97l16.386-32.771h102.198L417.352,310.519z"/>
				<path style="fill:#231F20;" d="M365.329,191.843V0H190.626v15h159.703v176.095c-0.154,0-0.308-0.006-0.462-0.006      c-87.551,0-158.778,71.228-158.778,158.778c0,44.346,18.747,86.989,51.434,116.995l10.144-11.051      c-29.601-27.172-46.577-65.788-46.577-105.944c0-79.279,64.499-143.778,143.778-143.778s143.779,64.499,143.779,143.778      s-64.499,143.778-143.779,143.778c-27.617,0-54.439-7.849-77.567-22.696l-8.104,12.623c25.55,16.403,55.174,25.073,85.67,25.073      c87.551,0,158.779-71.228,158.779-158.778C508.646,267.533,445.651,199.643,365.329,191.843z"/>
				<polygon style="fill:#231F20;" points="206.55,238.86 15,238.86 15,15 166.74,15 166.74,0 0,0 0,253.86 206.55,253.86     "/>
				<path style="fill:#231F20;" d="M39.81,190.626v31.387h158.316v-31.387c0-33.573-21.018-62.31-50.579-73.798      c11.372-8.648,18.731-22.313,18.731-37.67c0-26.087-21.223-47.311-47.31-47.311s-47.31,21.224-47.31,47.311      c0,15.356,7.359,29.021,18.731,37.67C60.828,128.316,39.81,157.053,39.81,190.626z M86.658,79.158      c0-17.816,14.494-32.311,32.31-32.311s32.31,14.494,32.31,32.311c0,17.815-14.494,32.31-32.31,32.31      S86.658,96.974,86.658,79.158z M118.968,126.468c35.377,0,64.158,28.781,64.158,64.158v16.387H54.81v-16.387      c0-0.155,0.011-0.307,0.012-0.462h48.222v-15H56.705C63.644,147.233,88.922,126.468,118.968,126.468z"/>
				<rect x="150.816" y="175.164" style="fill:#231F20;" width="15.924" height="15"/>
				<rect x="310.057" y="79.62" style="fill:#231F20;" width="15.924" height="15"/>
				<rect x="246.36" y="79.62" style="fill:#231F20;" width="15.924" height="15"/>
				<rect x="198.588" y="111.468" style="fill:#231F20;" width="127.393" height="15"/>
				<rect x="222.475" y="175.164" style="fill:#231F20;" width="39.81" height="15"/>
				<polygon style="fill:#231F20;" points="437.911,156.596 426.828,145.513 416.222,156.12 445.411,185.309 474.601,156.12       463.994,145.513 452.911,156.596 452.911,63.696 397.639,63.696 397.639,78.696 437.911,78.696     "/>
				<polygon style="fill:#231F20;" points="121.627,371.095 132.71,382.177 102.582,382.177 102.582,278.209 87.582,278.209       87.582,397.177 132.71,397.177 121.627,408.26 132.233,418.867 161.423,389.677 132.233,360.487     "/>
				<rect x="373.753" y="421.987" style="fill:#231F20;" width="15.924" height="15"/>
				<rect x="310.057" y="421.987" style="fill:#231F20;" width="15.924" height="15"/>
			</g>
		</g>
	</g>
</g>















</svg>
