<svg height="419pt" viewBox="0 -68 419.86436 419" width="419pt" xmlns="http://www.w3.org/2000/svg"><path d="m413.039062 140.53125c0 49.015625-39.734374 88.746094-88.746093 88.746094s-88.746094-39.730469-88.746094-88.746094c0-49.011719 39.734375-88.746094 88.746094-88.746094s88.746093 39.734375 88.746093 88.746094zm0 0" fill="#ee5281"/><path d="m324.292969 236.109375c-52.703125 0-95.574219-42.875-95.574219-95.574219 0-52.699218 42.871094-95.574218 95.574219-95.574218 52.699219 0 95.570312 42.875 95.570312 95.574218 0 52.699219-42.871093 95.574219-95.570312 95.574219zm0-177.496094c-45.175781 0-81.921875 36.746094-81.921875 81.921875 0 45.171875 36.746094 81.917969 81.921875 81.917969 45.171875 0 81.917969-36.746094 81.917969-81.917969 0-45.175781-36.746094-81.921875-81.917969-81.921875zm0 0"/><path d="m262.851562 140.53125-225.832031 135.980469 41.511719-135.980469-37.390625-133.273438zm0 0" fill="#288eea"/><path d="m37.019531 283.339844c-1.488281 0-2.972656-.484375-4.203125-1.445313-2.226562-1.742187-3.152344-4.667969-2.324218-7.375l40.925781-134.066406-36.851563-131.34375c-.753906-2.695313.207032-5.582031 2.433594-7.273437 2.226562-1.695313 5.257812-1.8750005 7.660156-.429688l221.710938 133.273438c2.046875 1.234374 3.308594 3.453124 3.308594 5.855468 0 2.390625-1.253907 4.613282-3.308594 5.847656l-225.832032 135.976563c-1.085937.65625-2.308593.980469-3.519531.980469zm15.339844-261.371094 32.746094 116.71875c.351562 1.261719.339843 2.59375-.046875 3.839844l-36.3125 118.960937 200.867187-120.945312zm0 0"/><path d="m180.539062 140.925781-173.71875 104.601563 31.933594-104.601563-28.765625-102.519531zm0 0" fill="#83d816"/><path d="m6.824219 252.355469c-1.484375 0-2.972657-.488281-4.199219-1.449219-2.226562-1.734375-3.152344-4.664062-2.324219-7.371094l31.335938-102.6875-28.21875-100.59375c-.75-2.691406.207031-5.582031 2.433593-7.273437 2.234376-1.691407 5.269532-1.867188 7.660157-.425781l170.546875 102.519531c2.046875 1.234375 3.308594 3.453125 3.308594 5.851562 0 2.394531-1.253907 4.613281-3.308594 5.847657l-173.714844 104.601562c-1.085938.652344-2.304688.980469-3.519531.980469zm14.382812-199.242188 24.117188 85.96875c.355469 1.257813.339843 2.59375-.042969 3.839844l-26.726562 87.578125 148.746093-89.566406zm0 0"/><path d="m311.304688 163.769531h39.015624c1.945313 0 3.402344.066407 4.371094.1875.972656.132813 2.089844.53125 3.355469 1.207031 2.285156 1.183594 3.425781 4.480469 3.425781 9.886719 0 5.910157-1.5625 9.371094-4.691406 10.386719-1.433594.503906-3.632812.757812-6.582031.757812h-50.167969c-5.914062 0-9.375-1.601562-10.390625-4.816406-.507813-1.347656-.761719-3.503906-.761719-6.460937v-70.433594c0-4.308594.804688-7.242187 2.40625-8.804687 1.601563-1.5625 4.644532-2.347657 9.121094-2.347657h49.914062c1.945313 0 3.402344.0625 4.367188.191407.972656.132812 2.09375.53125 3.359375 1.203124 2.28125 1.1875 3.425781 4.476563 3.425781 9.882813 0 5.914063-1.566406 9.375-4.691406 10.390625-1.433594.507812-3.632812.753906-6.585938.753906h-38.890624v12.796875h25.082031c1.941406 0 3.402343.0625 4.367187.191407.972656.125 2.09375.53125 3.359375 1.203124 2.28125 1.183594 3.425781 4.476563 3.425781 9.882813 0 5.910156-1.609374 9.375-4.816406 10.386719-1.441406.503906-3.632812.757812-6.589844.757812h-24.828124zm0 0"/></svg>