<?xml version="1.0"?><svg width="793.7007874015749" height="1122.5196850393702" xmlns="http://www.w3.org/2000/svg">

 <g>
  <title>Layer 1</title>
  <g externalResourcesRequired="false" id="layer1">
   <path fill="#017001" fill-rule="evenodd" stroke="#000000" stroke-width="15.325" stroke-miterlimit="4" stroke-dashoffset="0" id="rect1061" d="m377.493988,87.601143c-20.872925,0 -41.716858,7.782928 -57.713043,23.2743c-31.992401,30.982758 -31.992401,80.842346 0,111.825027l163.70697,158.582214l-378.881897,0c-45.244114,0 -81.659664,35.308075 -81.659664,79.124237c0,43.816254 36.41555,79.082581 81.659664,79.082581l378.924927,0l-163.75,158.582214c-31.992401,30.982727 -31.992432,80.842224 0,111.825012c31.992432,30.982849 83.476776,30.982849 115.469177,0l303.165771,-293.598083c31.992432,-30.982788 31.992432,-80.842346 0,-111.825073l-303.165771,-293.598129c-15.996216,-15.491394 -36.883179,-23.2743 -57.756134,-23.2743z"/>
  </g>
 </g>
</svg>