<svg height="402pt" viewBox="-60 0 402 402.80747" width="402pt" xmlns="http://www.w3.org/2000/svg"><path d="m232.664062 95.574219c0 49.011719-39.730468 88.746093-88.746093 88.746093-49.011719 0-88.746094-39.734374-88.746094-88.746093 0-49.015625 39.734375-88.746094 88.746094-88.746094 49.015625 0 88.746093 39.730469 88.746093 88.746094zm0 0" fill="#ee5281"/><path d="m143.917969 191.148438c-52.699219 0-95.570313-42.875-95.570313-95.574219s42.871094-95.574219 95.570313-95.574219c52.703125 0 95.574219 42.875 95.574219 95.574219s-42.871094 95.574219-95.574219 95.574219zm0-177.496094c-45.171875 0-81.917969 36.746094-81.917969 81.921875 0 45.171875 36.746094 81.917969 81.917969 81.917969 45.175781 0 81.921875-36.746094 81.921875-81.917969 0-45.175781-36.75-81.921875-81.921875-81.921875zm0 0"/><path d="m140.507812 139.945312 135.980469 225.835938-135.980469-41.515625-133.277343 37.394531zm0 0" fill="#288eea"/><path d="m276.484375 372.605469c-.667969 0-1.332031-.101563-1.992187-.300781l-134.066407-40.925782-131.347656 36.855469c-2.707031.773437-5.574219-.207031-7.273437-2.433594-1.699219-2.226562-1.867188-5.261719-.425782-7.660156l133.273438-221.714844c1.234375-2.042969 3.453125-3.304687 5.855468-3.304687 2.390626 0 4.609376 1.25 5.84375 3.304687l135.980469 225.835938c1.460938 2.417969 1.273438 5.492187-.464843 7.71875-1.316407 1.6875-3.316407 2.625-5.382813 2.625zm-135.976563-55.164063c.671876 0 1.34375.097656 1.992188.300782l118.960938 36.3125-120.949219-200.867188-118.574219 197.253906 116.722656-32.75c.605469-.164062 1.226563-.25 1.847656-.25zm0 0"/><path d="m140.898438 222.261719 104.601562 173.714843-104.601562-31.929687-102.515626 28.761719zm0 0" fill="#83d816"/><path d="m245.5 402.808594c-.667969 0-1.335938-.101563-1.996094-.300782l-102.6875-31.347656-100.589844 28.21875c-2.699218.769532-5.574218-.203125-7.273437-2.433594-1.699219-2.226562-1.867187-5.257812-.429687-7.65625l102.519531-170.550781c1.234375-2.042969 3.453125-3.304687 5.855469-3.304687 2.394531 0 4.613281 1.25 5.847656 3.304687l104.597656 173.722657c1.460938 2.417968 1.273438 5.492187-.464844 7.71875-1.3125 1.6875-3.3125 2.628906-5.378906 2.628906zm-104.601562-45.589844c.675781 0 1.347656.101562 1.992187.300781l87.582031 26.734375-89.566406-148.753906-87.820312 146.09375 85.964843-24.121094c.609375-.164062 1.226563-.253906 1.847657-.253906zm0 0"/><path d="m160.039062 51.421875c.78125-1.4375 1.957032-2.402344 3.515626-2.894531 1.5625-.496094 3.515624-.742188 5.859374-.742188 2.347657 0 4.242188.203125 5.679688.613282 1.4375.414062 2.503906.910156 3.203125 1.480468.703125.582032 1.214844 1.441406 1.546875 2.597656.492188 1.3125.738281 3.410157.738281 6.285157v68.488281c0 1.96875-.058593 3.410156-.1875 4.316406-.121093.902344-.515625 1.96875-1.171875 3.210938-1.148437 2.214844-4.359375 3.328125-9.625 3.328125-3.207031 0-5.425781-.246094-6.660156-.738281-1.238281-.496094-2.265625-1.277344-3.089844-2.347657-18.503906-24.679687-30.683594-40.796875-36.519531-48.367187v40.597656c0 1.96875-.0625 3.410156-.1875 4.316406-.121094.902344-.515625 1.96875-1.171875 3.210938-1.152344 2.214844-4.359375 3.328125-9.625 3.328125-5.097656 0-8.226562-1.113281-9.375-3.328125-.65625-1.238282-1.050781-2.347656-1.171875-3.335938-.128906-.988281-.1875-2.421875-.1875-4.316406v-68.855469c0-3.121093.390625-5.40625 1.171875-6.847656.785156-1.4375 1.957031-2.402344 3.515625-2.894531 1.5625-.496094 3.578125-.742188 6.046875-.742188s4.421875.226563 5.859375.675782c1.441406.453124 2.449219.96875 3.027344 1.542968.328125.246094 1.273437 1.316406 2.835937 3.210938 17.355469 23.605468 28.957032 39.195312 34.796875 46.765625v-41.710938c.003907-3.121093.390625-5.40625 1.175781-6.847656zm0 0"/></svg>