<svg xmlns="http://www.w3.org/2000/svg" height="512pt" version="1.1" viewBox="0 0 512 512" width="512pt">
<g id="surface1">
<path d="M 305.5 7.5 L 125.5 7.5 L 95.5 71.5 L 335.5 71.5 Z M 305.5 7.5 " style=" stroke:none;fill-rule:nonzero;fill:rgb(43.921569%,64.705882%,95.294118%);fill-opacity:1;" />
<path d="M 406.679688 86.484375 L 335.5 71.5 L 70.5 71.5 C 53.929688 71.5 40.5 84.929688 40.5 101.5 L 40.5 163.5 L 430.5 163.5 L 430.5 115.84375 C 430.5 101.65625 420.5625 89.40625 406.679688 86.484375 Z M 406.679688 86.484375 " style=" stroke:none;fill-rule:nonzero;fill:rgb(98.823529%,74.509804%,34.117647%);fill-opacity:1;" />
<path d="M 305.5 261.5 L 125.5 261.5 L 95.5 325.5 L 335.5 325.5 Z M 305.5 261.5 " style=" stroke:none;fill-rule:nonzero;fill:rgb(43.921569%,64.705882%,95.294118%);fill-opacity:1;" />
<path d="M 406.679688 340.484375 L 335.5 325.5 L 70.5 325.5 C 53.929688 325.5 40.5 338.929688 40.5 355.5 L 40.5 417.5 L 430.5 417.5 L 430.5 369.84375 C 430.5 355.65625 420.5625 343.40625 406.679688 340.484375 Z M 406.679688 340.484375 " style=" stroke:none;fill-rule:nonzero;fill:rgb(60.784314%,48.627451%,67.058824%);fill-opacity:1;" />
<path d="M 159.5 164.5 C 159.5 189.351562 139.351562 209.5 114.5 209.5 C 89.648438 209.5 69.5 189.351562 69.5 164.5 C 69.5 139.648438 89.648438 119.5 114.5 119.5 C 139.351562 119.5 159.5 139.648438 159.5 164.5 Z M 159.5 164.5 " style=" stroke:none;fill-rule:nonzero;fill:rgb(24.313725%,19.215686%,23.921569%);fill-opacity:1;" />
<path d="M 400.5 164.5 C 400.5 189.351562 380.351562 209.5 355.5 209.5 C 330.648438 209.5 310.5 189.351562 310.5 164.5 C 310.5 139.648438 330.648438 119.5 355.5 119.5 C 380.351562 119.5 400.5 139.648438 400.5 164.5 Z M 400.5 164.5 " style=" stroke:none;fill-rule:nonzero;fill:rgb(24.313725%,19.215686%,23.921569%);fill-opacity:1;" />
<path d="M 464.5 7.5 L 464.5 464.5 L 7.5 464.5 L 7.5 504.5 L 504.5 504.5 L 504.5 7.5 Z M 464.5 7.5 " style=" stroke:none;fill-rule:nonzero;fill:rgb(69.019608%,70.588235%,72.54902%);fill-opacity:1;" />
<path d="M 159.5 418.5 C 159.5 443.351562 139.351562 463.5 114.5 463.5 C 89.648438 463.5 69.5 443.351562 69.5 418.5 C 69.5 393.648438 89.648438 373.5 114.5 373.5 C 139.351562 373.5 159.5 393.648438 159.5 418.5 Z M 159.5 418.5 " style=" stroke:none;fill-rule:nonzero;fill:rgb(24.313725%,19.215686%,23.921569%);fill-opacity:1;" />
<path d="M 400.5 418.5 C 400.5 443.351562 380.351562 463.5 355.5 463.5 C 330.648438 463.5 310.5 443.351562 310.5 418.5 C 310.5 393.648438 330.648438 373.5 355.5 373.5 C 380.351562 373.5 400.5 393.648438 400.5 418.5 Z M 400.5 418.5 " style=" stroke:none;fill-rule:nonzero;fill:rgb(24.313725%,19.215686%,23.921569%);fill-opacity:1;" />
<path d="M 114.5 139.5 C 135.914062 139.5 153.820312 154.464844 158.371094 174.5 C 159.101562 171.28125 159.5 167.9375 159.5 164.5 C 159.5 139.648438 139.351562 119.5 114.5 119.5 C 89.648438 119.5 69.5 139.648438 69.5 164.5 C 69.5 167.9375 69.898438 171.28125 70.628906 174.5 C 75.179688 154.464844 93.085938 139.5 114.5 139.5 Z M 114.5 139.5 " style=" stroke:none;fill-rule:nonzero;fill:rgb(20%,14.509804%,20%);fill-opacity:1;" />
<path d="M 355.5 139.5 C 376.914062 139.5 394.820312 154.464844 399.371094 174.5 C 400.101562 171.28125 400.5 167.9375 400.5 164.5 C 400.5 139.648438 380.351562 119.5 355.5 119.5 C 330.648438 119.5 310.5 139.648438 310.5 164.5 C 310.5 167.9375 310.898438 171.28125 311.628906 174.5 C 316.179688 154.464844 334.085938 139.5 355.5 139.5 Z M 355.5 139.5 " style=" stroke:none;fill-rule:nonzero;fill:rgb(20%,14.509804%,20%);fill-opacity:1;" />
<path d="M 114.5 393.5 C 135.914062 393.5 153.820312 408.464844 158.371094 428.5 C 159.101562 425.28125 159.5 421.9375 159.5 418.5 C 159.5 393.648438 139.351562 373.5 114.5 373.5 C 89.648438 373.5 69.5 393.648438 69.5 418.5 C 69.5 421.9375 69.898438 425.28125 70.628906 428.5 C 75.179688 408.464844 93.085938 393.5 114.5 393.5 Z M 114.5 393.5 " style=" stroke:none;fill-rule:nonzero;fill:rgb(20%,14.509804%,20%);fill-opacity:1;" />
<path d="M 355.5 393.5 C 376.914062 393.5 394.820312 408.464844 399.371094 428.5 C 400.101562 425.28125 400.5 421.9375 400.5 418.5 C 400.5 393.648438 380.351562 373.5 355.5 373.5 C 330.648438 373.5 310.5 393.648438 310.5 418.5 C 310.5 421.9375 310.898438 425.28125 311.628906 428.5 C 316.179688 408.464844 334.085938 393.5 355.5 393.5 Z M 355.5 393.5 " style=" stroke:none;fill-rule:nonzero;fill:rgb(20%,14.509804%,20%);fill-opacity:1;" />
<path d="M 457 0 L 457 202 L 392.191406 202 C 400.476562 193.894531 406.085938 183.078125 407.582031 171 L 438 171 L 438 115.839844 C 438 98.210938 425.476562 82.78125 408.226562 79.152344 L 340.703125 64.933594 L 310.269531 0 L 120.730469 0 L 90.730469 64 L 70.5 64 C 49.820312 64 33 80.820312 33 101.5 L 33 171 L 62.417969 171 C 63.914062 183.078125 69.523438 193.894531 77.808594 202 L 0.5 202 L 0.5 217 L 457 217 L 457 457 L 391.144531 457 C 400 448.792969 406.019531 437.582031 407.582031 425 L 438 425 L 438 369.839844 C 438 352.210938 425.476562 336.78125 408.226562 333.152344 L 340.703125 318.933594 L 310.269531 254 L 120.730469 254 L 90.730469 318 L 70.5 318 C 49.820312 318 33 334.820312 33 355.5 L 33 425 L 62.417969 425 C 63.980469 437.582031 70 448.792969 78.855469 457 L 0 457 L 0 512 L 512 512 L 512 0 Z M 223 15 L 300.730469 15 L 323.699219 64 L 223 64 Z M 223 79 L 334.71875 79 L 405.136719 93.828125 C 415.488281 96.007812 423 105.265625 423 115.839844 L 423 156 L 407.300781 156 C 403.226562 131.082031 381.554688 112 355.5 112 C 329.445312 112 307.773438 131.082031 303.699219 156 L 223 156 Z M 130.269531 15 L 208 15 L 208 64 L 107.300781 64 Z M 48 156 L 48 101.5 C 48 89.09375 58.09375 79 70.5 79 L 208 79 L 208 156 L 166.300781 156 C 162.226562 131.082031 140.554688 112 114.5 112 C 88.445312 112 66.773438 131.082031 62.699219 156 Z M 114.5 202 C 93.820312 202 77 185.179688 77 164.5 C 77 143.820312 93.820312 127 114.5 127 C 135.179688 127 152 143.820312 152 164.5 C 152 185.179688 135.179688 202 114.5 202 Z M 151.191406 202 C 159.476562 193.894531 165.085938 183.078125 166.582031 171 L 303.417969 171 C 304.914062 183.078125 310.523438 193.894531 318.808594 202 Z M 355.5 202 C 334.820312 202 318 185.179688 318 164.5 C 318 143.820312 334.820312 127 355.5 127 C 376.179688 127 393 143.820312 393 164.5 C 393 185.179688 376.179688 202 355.5 202 Z M 355.5 456 C 334.820312 456 318 439.179688 318 418.5 C 318 397.820312 334.820312 381 355.5 381 C 376.179688 381 393 397.820312 393 418.5 C 393 439.179688 376.179688 456 355.5 456 Z M 319.855469 457 L 150.144531 457 C 159 448.792969 165.019531 437.582031 166.582031 425 L 303.417969 425 C 304.980469 437.582031 311 448.792969 319.855469 457 Z M 223 269 L 300.730469 269 L 323.699219 318 L 223 318 Z M 223 333 L 334.71875 333 L 405.136719 347.828125 C 415.488281 350.007812 423 359.265625 423 369.839844 L 423 410 L 407.300781 410 C 403.226562 385.082031 381.554688 366 355.5 366 C 329.445312 366 307.773438 385.082031 303.699219 410 L 223 410 Z M 130.269531 269 L 208 269 L 208 318 L 107.300781 318 Z M 48 410 L 48 355.5 C 48 343.09375 58.09375 333 70.5 333 L 208 333 L 208 410 L 166.300781 410 C 162.226562 385.082031 140.554688 366 114.5 366 C 88.445312 366 66.773438 385.082031 62.699219 410 Z M 77 418.5 C 77 397.820312 93.820312 381 114.5 381 C 135.179688 381 152 397.820312 152 418.5 C 152 439.179688 135.179688 456 114.5 456 C 93.820312 456 77 439.179688 77 418.5 Z M 497 497 L 15 497 L 15 472 L 472 472 L 472 15 L 497 15 Z M 497 497 " style=" stroke:none;fill-rule:nonzero;fill:rgb(0%,0%,0%);fill-opacity:1;" />
<path d="M 237.5 95 L 252.5 95 L 252.5 110 L 237.5 110 Z M 237.5 95 " style=" stroke:none;fill-rule:nonzero;fill:rgb(100%,100%,100%);fill-opacity:1;" />
<path d="M 177.5 95 L 192.5 95 L 192.5 110 L 177.5 110 Z M 177.5 95 " style=" stroke:none;fill-rule:nonzero;fill:rgb(100%,100%,100%);fill-opacity:1;" />
<path d="M 348 157 L 363 157 L 363 172 L 348 172 Z M 348 157 " style=" stroke:none;fill-rule:nonzero;fill:rgb(100%,100%,100%);fill-opacity:1;" />
<path d="M 107 157 L 122 157 L 122 172 L 107 172 Z M 107 157 " style=" stroke:none;fill-rule:nonzero;fill:rgb(100%,100%,100%);fill-opacity:1;" />
<path d="M 237.5 349 L 252.5 349 L 252.5 364 L 237.5 364 Z M 237.5 349 " style=" stroke:none;fill-rule:nonzero;fill:rgb(100%,100%,100%);fill-opacity:1;" />
<path d="M 177.5 349 L 192.5 349 L 192.5 364 L 177.5 364 Z M 177.5 349 " style=" stroke:none;fill-rule:nonzero;fill:rgb(100%,100%,100%);fill-opacity:1;" />
<path d="M 348 411 L 363 411 L 363 426 L 348 426 Z M 348 411 " style=" stroke:none;fill-rule:nonzero;fill:rgb(100%,100%,100%);fill-opacity:1;" />
<path d="M 107 411 L 122 411 L 122 426 L 107 426 Z M 107 411 " style=" stroke:none;fill-rule:nonzero;fill:rgb(100%,100%,100%);fill-opacity:1;" />
</g>
</svg>