<?xml version="1.0" encoding="iso-8859-1"?>
<!-- Generator: Adobe Illustrator 19.0.0, SVG Export Plug-In . SVG Version: 6.00 Build 0)  -->
<svg xmlns="http://www.w3.org/2000/svg" xmlns:xlink="http://www.w3.org/1999/xlink" version="1.1" id="Layer_1" x="0px" y="0px" viewBox="0 0 508.646 508.646" style="enable-background:new 0 0 508.646 508.646;" xml:space="preserve" width="512" height="512">
<g>
	<g>
		<g>
			<polygon style="fill:#F2F2F2;" points="469.359,453.143 469.359,500.916 437.511,500.916 437.511,469.068 453.435,469.068    "/>
			<polygon style="fill:#F2F2F2;" points="294.195,469.068 294.195,500.916 262.347,500.916 262.347,453.143 278.271,469.068    "/>
			<polygon style="fill:#FFE475;" points="437.511,469.068 294.195,469.068 278.271,469.068 262.347,453.143 262.347,405.371      286.233,405.371 445.473,405.371 469.359,405.371 469.359,453.143 453.435,469.068    "/>
			<polygon style="fill:#C7E2F7;" points="421.587,357.599 445.473,405.371 286.233,405.371 310.119,357.599 349.929,357.599      405.663,357.599    "/>
			<rect x="349.929" y="333.713" style="fill:#FFE475;" width="55.734" height="23.886"/>
			<g>
				<polygon style="fill:#FF9901;" points="294.195,405.371 286.233,405.371 262.347,405.371 262.347,453.143 278.271,469.068       294.195,469.068 310.119,469.068 294.195,453.143     "/>
			</g>
			<g>
				<polygon style="fill:#91C4FD;" points="310.119,357.599 286.233,405.371 318.081,405.371 341.967,357.599     "/>
			</g>
		</g>
		<g>
			<g id="XMLID_12_">
				<g>
					<polygon style="fill:#D6D6E2;" points="341.967,7.27 389.739,333.713 357.891,333.713 310.119,7.27      "/>
					<polygon style="fill:#D6D6E2;" points="119.03,7.27 71.258,500.916 39.41,500.916 87.182,7.27      "/>
					<rect x="198.651" y="429.257" style="fill:#F2F2F2;" width="31.848" height="71.658"/>
					<rect x="198.651" y="301.865" style="fill:#F2F2F2;" width="31.848" height="79.62"/>
					<rect x="198.651" y="174.473" style="fill:#F2F2F2;" width="31.848" height="79.62"/>
					<rect x="198.651" y="47.08" style="fill:#F2F2F2;" width="31.848" height="79.62"/>
					<path style="fill:#BFBCCA;" d="M198.651,47.08v79.62h31.848V47.08H198.651z M198.651,301.865v79.62h31.848v-79.62H198.651z        M230.499,254.093v-79.62h-31.848v79.62H230.499z M310.119,7.27l47.772,326.443h-7.962v23.886h-39.81l-23.886,47.772h-23.886       v47.772v47.772h-31.848v-71.658h-31.848v71.658H71.258L119.03,7.27H310.119z"/>
					<g>
						<polygon style="fill:#898792;" points="119.03,7.27 71.258,500.916 126.992,500.916 174.764,7.27       "/>
					</g>
				</g>
			</g>
		</g>
	</g>
	<g>
		<g>
			<g id="XMLID_41_">
				<g>
					<g>
						<rect x="159.159" y="71.658" style="fill:#FFFFFF;" width="15.924" height="15"/>
					</g>
					<g>
						<rect x="254.703" y="199.05" style="fill:#FFFFFF;" width="15.925" height="15"/>
					</g>
					<g>
						<rect x="159.159" y="326.442" style="fill:#FFFFFF;" width="15.924" height="15"/>
					</g>
					<g>
						<path style="fill:#231F20;" d="M450.427,398.101l-23.886-47.771h-13.059v-23.887h-16.943L348.768,0H80.691L64.625,166.018        l14.93,1.445L94.31,15h16.778L64.768,493.646H47.989l29.255-302.297l-14.93-1.445L31.467,508.646h160.002h7.5h39.348v-86.658        h-46.848v71.658H79.837L126.158,15h177.797l42.173,288.181l14.842-2.172L319.114,15h16.689l45.577,311.442h-38.632v23.887        h-36.945l-23.886,47.771h-26.75v55.272v3.106v52.166h46.848v-31.849h64.158v-15h-84.476l-11.53-11.53v-37.166h4.25h12.136        h159.24h12.136h4.251v37.166l-11.531,11.53h-60.59v15h40.272v31.849h46.849v-52.166v-3.106v-55.272H450.427z M206.469,436.987        h16.848v56.658h-16.848V436.987z M275.483,476.797h11.53v16.849h-16.848v-22.166L275.483,476.797z M357.748,341.442h40.734        v8.887h-40.734V341.442z M298.687,398.101l16.386-32.771H417.27l16.386,32.771H298.687z M462.178,493.646H445.33v-16.849        h11.53l5.318-5.318V493.646z"/>
						<rect x="286.551" y="429.949" style="fill:#231F20;" width="15.924" height="15"/>
						<rect x="429.868" y="429.949" style="fill:#231F20;" width="15.924" height="15"/>
						<path style="fill:#231F20;" d="M191.469,134.43h46.848V39.81h-46.848V134.43z M206.469,54.81h16.848v64.62h-16.848V54.81z"/>
						<path style="fill:#231F20;" d="M191.469,261.822h46.848v-94.62h-46.848V261.822z M206.469,182.202h16.848v64.62h-16.848        V182.202z"/>
						<path style="fill:#231F20;" d="M191.469,389.215h46.848v-94.62h-46.848V389.215z M206.469,309.595h16.848v64.62h-16.848        V309.595z"/>
						<rect x="159.159" y="39.81" style="fill:#231F20;" width="15.924" height="15"/>
						<rect x="254.703" y="167.202" style="fill:#231F20;" width="15.925" height="15"/>
						<rect x="159.159" y="294.595" style="fill:#231F20;" width="15.924" height="15"/>
						
							<rect x="121.811" y="210.993" transform="matrix(-0.1191 0.9929 -0.9929 -0.1191 366.7222 111.6372)" style="fill:#231F20;" width="24.058" height="14.999"/>
					</g>
					<g>
						
							<rect x="108.943" y="253.537" transform="matrix(0.9928 0.1202 -0.1202 0.9928 44.329 -11.3722)" style="fill:#FFFFFF;" width="14.999" height="216.546"/>
					</g>
					<g>
						<rect x="318.399" y="429.949" style="fill:#FFFFFF;" width="95.545" height="15"/>
					</g>
				</g>
			</g>
		</g>
	</g>
</g>















</svg>
