<svg height="419pt" viewBox="-68 0 419 419.8664" width="419pt" xmlns="http://www.w3.org/2000/svg"><path d="m231.984375 324.292969c0 49.011719-39.734375 88.746093-88.746094 88.746093-49.015625 0-88.746093-39.734374-88.746093-88.746093s39.730468-88.746094 88.746093-88.746094c49.011719 0 88.746094 39.734375 88.746094 88.746094zm0 0" fill="#ee5281"/><path d="m143.238281 419.867188c-52.699219 0-95.574219-42.875-95.574219-95.574219s42.875-95.574219 95.574219-95.574219 95.574219 42.875 95.574219 95.574219-42.875 95.574219-95.574219 95.574219zm0-177.492188c-45.175781 0-81.921875 36.746094-81.921875 81.917969 0 45.175781 36.746094 81.921875 81.921875 81.921875 45.171875 0 81.917969-36.746094 81.917969-81.921875 0-45.171875-36.746094-81.917969-81.917969-81.917969zm0 0"/><path d="m109.015625 358.910156c-2.410156-2.964844-3.613281-5.628906-3.613281-7.988281 0-2.363281 1.992187-5.488281 5.980468-9.382813 2.3125-2.222656 4.765626-3.335937 7.363282-3.335937 2.589844 0 6.207031 2.316406 10.839844 6.949219 1.296874 1.578125 3.148437 3.082031 5.558593 4.515625 2.414063 1.4375 4.636719 2.15625 6.675781 2.15625 8.613282 0 12.925782-3.519531 12.925782-10.5625 0-2.132813-1.183594-3.914063-3.546875-5.351563-2.363281-1.433594-5.304688-2.476562-8.824219-3.125-3.523438-.648437-7.324219-1.691406-11.402344-3.128906-4.078125-1.433594-7.871094-3.128906-11.394531-5.074219-3.523437-1.945312-6.460937-5.023437-8.824219-9.242187-2.363281-4.214844-3.546875-9.289063-3.546875-15.21875 0-8.152344 3.035157-15.265625 9.105469-21.339844 6.066406-6.066406 14.339844-9.101562 24.808594-9.101562 5.558594 0 10.632812.71875 15.21875 2.15625 4.585937 1.4375 7.757812 2.894531 9.519531 4.375l3.476563 2.640624c2.867187 2.691407 4.304687 4.960938 4.304687 6.8125 0 1.855469-1.113281 4.402344-3.332031 7.644532-3.152344 4.632812-6.398438 6.949218-9.730469 6.949218-1.949219 0-4.355469-.925781-7.230469-2.78125-.277344-.183593-.808594-.644531-1.597656-1.386718-.78125-.742188-1.503906-1.34375-2.152344-1.808594-1.945312-1.203125-4.425781-1.808594-7.433594-1.808594-3.011718 0-5.515624.71875-7.511718 2.15625-1.992188 1.4375-2.984375 3.425782-2.984375 5.976563s1.175781 4.609375 3.539062 6.183593c2.363281 1.578126 5.308594 2.640626 8.828125 3.199219 3.523438.554688 7.367188 1.414063 11.539063 2.570313 4.171875 1.160156 8.015625 2.570312 11.535156 4.238281s6.460937 4.566406 8.824219 8.6875c2.363281 4.125 3.546875 9.199219 3.546875 15.21875 0 6.027344-1.207031 11.328125-3.613281 15.914063-2.410157 4.589843-5.558594 8.132812-9.453126 10.636718-7.507812 4.910156-15.519531 7.367188-24.042968 7.367188-4.355469 0-8.484375-.539063-12.367188-1.601563-3.894531-1.066406-7.046875-2.386719-9.453125-3.960937-4.910156-2.964844-8.34375-5.839844-10.285156-8.617188zm0 0"/><path d="m143.238281 262.851562-135.980469-225.832031 135.980469 41.511719 133.273438-37.394531zm0 0" fill="#288eea"/><path d="m143.238281 269.679688c-2.394531 0-4.613281-1.253907-5.847656-3.308594l-135.980469-225.832032c-1.457031-2.417968-1.269531-5.492187.46875-7.71875 1.738282-2.226562 4.671875-3.140624 7.371094-2.328124l134.066406 40.925781 131.347656-36.851563c2.707032-.765625 5.582032.210938 7.273438 2.433594 1.699219 2.226562 1.867188 5.257812.425781 7.660156l-133.273437 221.710938c-1.230469 2.050781-3.449219 3.308594-5.851563 3.308594zm-120.953125-220.933594 120.945313 200.867187 118.574219-197.253906-116.71875 32.746094c-1.269532.347656-2.601563.335937-3.839844-.042969zm0 0"/><path d="m142.84375 180.539062-104.601562-173.714843 104.601562 31.929687 102.515625-28.765625zm0 0" fill="#83d816"/><path d="m142.84375 187.367188c-2.390625 0-4.613281-1.253907-5.84375-3.308594l-104.601562-173.71875c-1.460938-2.421875-1.273438-5.492188.464843-7.71875 1.734375-2.234375 4.667969-3.140625 7.375-2.328125l102.683594 31.347656 100.59375-28.21875c2.714844-.761719 5.574219.210937 7.273437 2.433594 1.699219 2.226562 1.867188 5.257812.429688 7.660156l-102.519531 170.546875c-1.234375 2.042969-3.453125 3.304688-5.855469 3.304688zm-89.574219-168.820313 89.566407 148.753906 87.820312-146.09375-85.964844 24.121094c-1.269531.34375-2.601562.339844-3.839844-.046875zm0 0"/></svg>